<svg width="60" height="60" viewBox="0 0 60 60" fill="none" xmlns="http://www.w3.org/2000/svg">
<path d="M45 56.6063V58.1063H1.875V56.6063C1.875 52.8844 4.06875 50.1422 7.43906 48.2532C11.6109 45.9094 17.5875 44.8688 23.4375 44.8594C29.2875 44.8501 35.2266 46.0266 39.3844 48.3938C42.7922 50.3297 45 53.0672 45 56.6063Z" fill="url(#paint0_linear_234_1056)"/>
<path d="M23.4375 43.2798H19.1812V47.9579C19.1812 50.072 20.9156 51.7876 23.0531 51.7876H23.8266C25.9641 51.7876 27.6984 50.072 27.6984 47.9579V43.2798H23.4375Z" fill="#C48E6A"/>
<path d="M48.8438 49.0359L46.95 58.1062H54.0188V56.6062C54.0234 53.4421 52.0219 50.9156 48.8438 49.0359Z" fill="#1B2B8F"/>
<path d="M27.8016 48.9937H18.4734L22.1766 58.1062H24.5391L27.8016 48.9937Z" fill="#F5F5F5"/>
<path d="M19.1625 44.9673L15.5156 45.3892L11.7656 53.4751L16.8656 51.4642L21.3422 58.1063H22.6172L19.1625 44.9673Z" fill="url(#paint1_linear_234_1056)"/>
<path d="M31.3641 45.3892L27.7125 44.9673L24.2625 58.1063H25.6688L30.3797 51.5438L35.1141 53.4751L31.3641 45.3892Z" fill="url(#paint2_linear_234_1056)"/>
<path d="M57.1031 26.5827C56.9438 26.3015 56.6719 26.1702 56.4047 26.1702C56.0484 26.1702 55.7016 26.3999 55.6219 26.8171L54.9375 30.5202C54.8906 30.7687 54.7313 30.9843 54.5016 31.0921L50.7141 32.9062C50.5631 32.9805 50.3923 33.0042 50.2268 32.9738C50.0613 32.9434 49.91 32.8605 49.7953 32.7374L46.9078 29.6905C46.7344 29.5077 46.6594 29.2499 46.7016 29.0015L47.3859 25.2983C47.4844 24.764 47.0625 24.3608 46.5984 24.3608C46.425 24.3608 46.2469 24.4171 46.0875 24.5483C44.7047 25.6968 43.6875 27.3468 43.3266 29.2921C42.8156 32.0577 43.7531 34.7343 45.5859 36.478C46.4109 37.2655 46.8047 38.3999 46.5984 39.5202L43.1625 58.1108H48L51.2766 40.3827C51.4828 39.2624 52.2563 38.3437 53.3063 37.903C55.6406 36.928 57.4734 34.7671 57.9844 31.9968C58.3453 30.0515 57.9844 28.1437 57.1031 26.5827Z" fill="url(#paint3_linear_234_1056)"/>
<path d="M44.2969 54.9892L43.4063 55.997C43.4063 55.997 40.7438 55.4298 41.0578 53.8876C41.1328 53.522 41.7891 52.7438 41.7891 52.7438C41.7891 52.7438 40.4531 51.6423 40.6641 50.897C40.875 50.161 42.15 49.5892 42.15 49.5892C42.15 49.5892 41.1609 48.9985 41.55 47.8876C41.8172 47.1282 43.2047 46.8751 43.2047 46.8751C43.2047 46.8751 41.9109 44.9767 44.5406 44.5454C45.3703 44.4095 47.2313 44.686 48.9 45.9188C50.5688 47.1517 51.3328 47.8923 52.1016 49.5142C53.2734 51.9751 51.2016 56.1938 49.6125 56.2313C48.2906 56.2595 44.2969 54.9892 44.2969 54.9892Z" fill="url(#paint4_linear_234_1056)"/>
<path d="M36.2203 23.5454H10.5984C7.8375 23.5454 5.57812 25.9501 5.57812 28.8938C5.57812 31.8376 7.8375 34.2423 10.5984 34.2423H36.2203C38.9813 34.2423 41.2406 31.8329 41.2406 28.8938C41.2406 25.9548 38.9813 23.5454 36.2203 23.5454Z" fill="#C48E6A"/>
<path d="M23.4094 5.09058C15.2531 5.09058 7.69687 13.814 7.69687 26.3718C7.69687 38.8593 15.4828 45.0328 23.4094 45.0328C31.3359 45.0328 39.1219 38.8593 39.1219 26.3718C39.1219 13.814 31.5656 5.09058 23.4094 5.09058Z" fill="#E0BB95"/>
<path d="M15.9984 29.8594C17.2747 29.8594 18.3094 28.7891 18.3094 27.4687C18.3094 26.1484 17.2747 25.0781 15.9984 25.0781C14.7221 25.0781 13.6875 26.1484 13.6875 27.4687C13.6875 28.7891 14.7221 29.8594 15.9984 29.8594Z" fill="#5D4037"/>
<path d="M30.6 29.8594C31.8763 29.8594 32.9109 28.7891 32.9109 27.4687C32.9109 26.1484 31.8763 25.0781 30.6 25.0781C29.3237 25.0781 28.2891 26.1484 28.2891 27.4687C28.2891 28.7891 29.3237 29.8594 30.6 29.8594Z" fill="#5D4037"/>
<path d="M12.1547 23.6812C12.1547 23.6812 12.2156 23.5922 12.3328 23.4422C12.3656 23.4047 12.3891 23.3672 12.4359 23.3203C12.4875 23.2687 12.5437 23.2172 12.6047 23.1656C12.6703 23.1094 12.7359 23.0531 12.8062 22.9875C12.8766 22.9266 12.9516 22.8844 13.0312 22.8234C13.1109 22.7672 13.1906 22.7109 13.2797 22.6594C13.3687 22.6125 13.4672 22.5609 13.5609 22.5094C13.6594 22.4531 13.7625 22.4109 13.8703 22.3688C13.9781 22.3266 14.0906 22.2844 14.2031 22.2422C14.4328 22.1766 14.6719 22.1062 14.925 22.0734C15.1734 22.0266 15.4312 22.0219 15.6844 22.0078C15.9422 22.0219 16.2 22.0219 16.4437 22.0734C16.6922 22.1016 16.9359 22.1766 17.1656 22.2422C17.2781 22.2797 17.3906 22.3219 17.4984 22.3688C17.6062 22.4109 17.7094 22.4531 17.8078 22.5094C17.9062 22.5609 18 22.6125 18.0891 22.6594C18.1781 22.7109 18.2625 22.7719 18.3375 22.8234C18.4172 22.8797 18.4922 22.9266 18.5578 22.9828C18.6234 23.0391 18.6844 23.0953 18.7453 23.1469C18.8016 23.1984 18.8578 23.2453 18.9047 23.2922C18.9516 23.3391 18.9891 23.3906 19.0266 23.4281C19.1719 23.5969 19.2422 23.7 19.2422 23.7C19.4812 24.0281 19.4062 24.4922 19.0734 24.7266C18.8719 24.8719 18.6234 24.9 18.4031 24.825L18.2672 24.7781C18.2672 24.7781 18.1781 24.7453 18.0375 24.6844C18 24.6703 17.9672 24.6516 17.9203 24.6328C17.8734 24.6187 17.8312 24.6 17.7797 24.5812C17.6812 24.5437 17.5734 24.5016 17.4516 24.4687C17.3906 24.45 17.3297 24.4266 17.2641 24.4078C17.1984 24.3937 17.1328 24.375 17.0625 24.3562L16.9594 24.3281C16.9219 24.3234 16.8891 24.3141 16.8516 24.3094C16.7766 24.2953 16.7062 24.2766 16.6312 24.2625C16.4766 24.2437 16.3219 24.2109 16.1625 24.2062C16.0031 24.1875 15.8391 24.1922 15.6797 24.1828C15.5156 24.1922 15.3562 24.1875 15.1969 24.2062C15.0375 24.2156 14.8828 24.2484 14.7281 24.2625C14.6531 24.2766 14.5781 24.2953 14.5078 24.3094C14.4703 24.3141 14.4328 24.3234 14.4 24.3281L14.2969 24.3562C14.2266 24.375 14.1609 24.3891 14.0953 24.4078C14.0297 24.4266 13.9687 24.45 13.9078 24.4687C13.8469 24.4875 13.7906 24.5063 13.7344 24.5203C13.6875 24.5391 13.6406 24.5531 13.5984 24.5672L13.4719 24.6094C13.425 24.6281 13.3781 24.6562 13.3359 24.675C13.1672 24.7594 13.0687 24.8016 13.0687 24.8016C12.6797 24.9609 12.2391 24.7781 12.0797 24.3937C11.9812 24.1547 12.0187 23.8875 12.1547 23.6812ZM33.7453 24.8062C33.7453 24.8062 33.6469 24.7641 33.4781 24.6797C33.4359 24.6609 33.3891 24.6328 33.3422 24.6141C33.3 24.6047 33.2578 24.5859 33.2156 24.5719C33.1734 24.5578 33.1266 24.5391 33.0797 24.525C33.0234 24.5062 32.9672 24.4922 32.9062 24.4734C32.8453 24.4547 32.7844 24.4313 32.7234 24.4125C32.6578 24.3984 32.5922 24.3797 32.5219 24.3609L32.4187 24.3328C32.3812 24.3281 32.3484 24.3187 32.3109 24.3141C32.2359 24.3 32.1656 24.2812 32.0906 24.2672C31.9359 24.2484 31.7812 24.2156 31.6219 24.2109C31.4625 24.1922 31.2984 24.1969 31.1391 24.1875C30.975 24.1969 30.8156 24.1922 30.6562 24.2109C30.4969 24.2203 30.3422 24.2531 30.1875 24.2672C30.1125 24.2812 30.0375 24.3 29.9672 24.3141C29.9297 24.3187 29.8922 24.3281 29.8594 24.3328L29.7562 24.3609C29.6859 24.3797 29.6203 24.3984 29.5547 24.4125C29.4891 24.4313 29.4281 24.4547 29.3672 24.4734C29.2453 24.5062 29.1375 24.5484 29.0391 24.5859C28.9922 24.6047 28.9453 24.6234 28.8984 24.6375C28.8562 24.6562 28.8187 24.675 28.7812 24.6891C28.6406 24.75 28.5516 24.7828 28.5516 24.7828L28.4203 24.8297C28.0359 24.9656 27.6141 24.7594 27.4828 24.375C27.4031 24.1406 27.4453 23.8922 27.5812 23.7C27.5812 23.7 27.6516 23.5969 27.7969 23.4281C27.8344 23.3859 27.8719 23.3391 27.9187 23.2922C27.9656 23.2453 28.0219 23.1984 28.0781 23.1469C28.1344 23.0953 28.2 23.0391 28.2656 22.9828C28.3312 22.9266 28.4109 22.8797 28.4859 22.8234C28.5656 22.7672 28.6453 22.7109 28.7344 22.6594C28.8234 22.6125 28.9219 22.5609 29.0156 22.5094C29.1141 22.4531 29.2172 22.4109 29.325 22.3688C29.4328 22.3266 29.5453 22.2844 29.6578 22.2422C29.8875 22.1766 30.1266 22.1062 30.3797 22.0734C30.6281 22.0266 30.8859 22.0219 31.1391 22.0078C31.3969 22.0219 31.6547 22.0219 31.8984 22.0734C32.1516 22.1016 32.3906 22.1766 32.6203 22.2422C32.7328 22.2797 32.8453 22.3219 32.9531 22.3688C33.0609 22.4109 33.1641 22.4531 33.2625 22.5094C33.3609 22.5609 33.4547 22.6125 33.5437 22.6594C33.6328 22.7109 33.7125 22.7719 33.7922 22.8234C33.8719 22.8797 33.9422 22.9266 34.0172 22.9875C34.0875 23.0484 34.1578 23.1094 34.2187 23.1656C34.2797 23.2219 34.3406 23.2734 34.3875 23.3203C34.4297 23.3672 34.4578 23.4047 34.4906 23.4422C34.6078 23.5875 34.6687 23.6812 34.6687 23.6812C34.9031 24.0281 34.8141 24.4969 34.4672 24.7359C34.2469 24.8812 33.975 24.9 33.7453 24.8062Z" fill="#AB872F"/>
<path d="M25.2188 31.8046C25.1672 31.7858 25.1203 31.7718 25.0688 31.7671H21.75C21.6984 31.7718 21.6469 31.7858 21.6 31.8046C21.3 31.9265 21.1359 32.2358 21.2766 32.5687C21.4172 32.9015 22.0781 33.8296 23.4094 33.8296C24.7406 33.8296 25.4016 32.8968 25.5422 32.5687C25.6828 32.2405 25.5188 31.9265 25.2188 31.8046Z" fill="#C48E6A"/>
<path d="M27.4078 35.5969C25.9125 36.4828 21.0187 36.4828 19.5281 35.5969C18.6703 35.0859 17.7937 35.8687 18.15 36.6469C18.5015 37.4109 21.1687 39.1875 23.4797 39.1875C25.7906 39.1875 28.425 37.4109 28.7765 36.6469C29.1281 35.864 28.2656 35.0859 27.4078 35.5969Z" fill="#6D4C41"/>
<path d="M23.4187 2.13281H23.4C2.10468 2.24531 6.46405 26.5734 6.46405 26.5734C6.46405 26.5734 7.4203 29.0813 7.85624 30.1875C7.91718 30.3469 8.15155 30.3281 8.18905 30.1641C8.64374 28.1297 10.2797 20.9156 11.1047 18.7266C11.3409 18.1009 11.7896 17.5782 12.3724 17.25C12.9551 16.9218 13.6347 16.8089 14.2922 16.9312C16.3781 17.3109 19.7062 17.7797 23.3719 17.7797H23.4469C27.1172 17.7797 30.4406 17.3109 32.5266 16.9312C33.8859 16.6828 35.2266 17.4375 35.7094 18.7266C36.5297 20.9109 38.1562 28.0828 38.6156 30.1453C38.6531 30.3141 38.8875 30.3281 38.9484 30.1688L40.3453 26.5734C40.3547 26.5734 44.7187 2.24531 23.4187 2.13281Z" fill="#AB872F"/>
<path d="M40.3547 26.5734C40.3547 26.5734 44.7187 2.24531 23.4187 2.13281H23.4C23.0672 2.13281 22.7437 2.14219 22.425 2.15625C21.7922 2.18437 21.1781 2.23125 20.5875 2.30156H20.5687C20.5266 2.30625 20.4891 2.31562 20.4469 2.32031C2.52186 4.575 6.46405 26.5734 6.46405 26.5734L7.86093 30.1734C7.92186 30.3328 8.15155 30.3188 8.18905 30.15C8.64843 28.0922 10.2797 20.9109 11.1047 18.7266C11.3409 18.1009 11.7896 17.5782 12.3724 17.25C12.9551 16.9218 13.6347 16.8089 14.2922 16.9312C16.3781 17.3109 19.7062 17.7797 23.3719 17.7797H23.4469C27.1172 17.7797 30.4406 17.3109 32.5266 16.9312C33.8859 16.6828 35.2266 17.4375 35.7094 18.7266C36.5344 20.9203 38.1703 28.1484 38.6203 30.1734C38.6578 30.3422 38.8875 30.3562 38.9484 30.1969C39.3937 29.0906 40.3547 26.5734 40.3547 26.5734Z" fill="url(#paint5_radial_234_1056)"/>
<path d="M23.3109 2.13281C33.9984 2.13281 40.3922 8.26875 40.7813 20.9859C40.7813 20.9859 36.2109 17.2266 23.5453 17.2266C9.83438 17.2266 6.0797 21.2297 6.09376 20.7891C6.57657 8.00625 12.7922 2.13281 23.5453 2.13281H23.3109Z" fill="url(#paint6_linear_234_1056)"/>
<path d="M12.6234 16.1297C12.6234 7.34531 16.8281 2.625 23.3109 2.625C29.7938 2.625 33.9984 7.53281 33.9984 16.1297C33.9984 23.1141 28.9453 17.6156 23.3109 17.6156C17.6766 17.6156 12.6234 23.1187 12.6234 16.1297Z" fill="url(#paint7_linear_234_1056)"/>
<path d="M23.475 13.3313C13.2703 13.3313 8.37656 18.9047 8.37656 18.9047C8.36718 19.8282 9.40781 21.4922 11.775 21.8719C15.0328 22.3969 17.1375 19.7625 23.4234 19.7625H23.4562V19.7485L23.475 19.7625H23.5078C29.7937 19.7625 31.8937 22.3922 35.1562 21.8719C37.5234 21.4922 38.3859 20.0672 38.3766 19.1485C38.3766 19.1485 33.8016 13.3313 23.475 13.3313Z" fill="#5E97F6"/>
<defs>
<linearGradient id="paint0_linear_234_1056" x1="23.4398" y1="44.8594" x2="23.4398" y2="61.4677" gradientUnits="userSpaceOnUse">
<stop offset="0.003" stop-color="#303F9F"/>
<stop offset="0.472" stop-color="#273492"/>
<stop offset="1" stop-color="#1A237E"/>
</linearGradient>
<linearGradient id="paint1_linear_234_1056" x1="14.363" y1="46.524" x2="19.3336" y2="58.6895" gradientUnits="userSpaceOnUse">
<stop stop-color="#5C6BC0"/>
<stop offset="1" stop-color="#3949AB"/>
</linearGradient>
<linearGradient id="paint2_linear_234_1056" x1="32.3531" y1="45.9503" x2="28.6903" y2="58.7049" gradientUnits="userSpaceOnUse">
<stop stop-color="#5C6BC0"/>
<stop offset="1" stop-color="#3949AB"/>
</linearGradient>
<linearGradient id="paint3_linear_234_1056" x1="51.6211" y1="24.6154" x2="46.3448" y2="57.6679" gradientUnits="userSpaceOnUse">
<stop stop-color="#90A4AE"/>
<stop offset="0.267" stop-color="#889DA8"/>
<stop offset="0.584" stop-color="#78909C"/>
<stop offset="1" stop-color="#607D8B"/>
</linearGradient>
<linearGradient id="paint4_linear_234_1056" x1="40.6463" y1="50.3701" x2="52.4508" y2="50.3701" gradientUnits="userSpaceOnUse">
<stop stop-color="#CCA47A"/>
<stop offset="0.5" stop-color="#E0BB95"/>
</linearGradient>
<radialGradient id="paint5_radial_234_1056" cx="0" cy="0" r="1" gradientUnits="userSpaceOnUse" gradientTransform="translate(23.4098 22.32) scale(17.8561 20.1452)">
<stop offset="0.794" stop-color="#BFA055" stop-opacity="0"/>
<stop offset="1" stop-color="#BFA055"/>
</radialGradient>
<linearGradient id="paint6_linear_234_1056" x1="23.4356" y1="18.2058" x2="23.4356" y2="-0.645938" gradientUnits="userSpaceOnUse">
<stop stop-color="#0068B5"/>
<stop offset="0.807" stop-color="#4C8EEA"/>
<stop offset="1" stop-color="#5E97F6"/>
</linearGradient>
<linearGradient id="paint7_linear_234_1056" x1="23.3086" y1="21.292" x2="23.3086" y2="9.21891" gradientUnits="userSpaceOnUse">
<stop stop-color="#0068B5"/>
<stop offset="1" stop-color="#5E97F6"/>
</linearGradient>
</defs>
</svg>
