<svg width="60" height="60" viewBox="0 0 60 60" fill="none" xmlns="http://www.w3.org/2000/svg">
<path d="M2.98126 5.10938H57.0234V41.4469H2.98126V5.10938Z" fill="url(#paint0_linear_234_1066)"/>
<path d="M55.9172 6.21563V40.3453H4.08281V6.21563H55.9172ZM58.125 4.00781H1.875V42.5531H58.125V4.00781Z" fill="url(#paint1_linear_234_1066)"/>
<path d="M30 42.5532H25.5469V47.6298C25.5469 49.9267 27.3609 51.7876 29.5922 51.7876H30.4031C32.6391 51.7876 34.4484 49.9267 34.4484 47.6298V42.5532H30Z" fill="#99674F"/>
<path d="M38.7656 45.5671C36.9 45.2484 34.9594 45.0421 33 44.939L31.7391 46.2937L30.0281 48.1359L28.3078 46.289L27.0469 44.9343C25.0875 45.0281 23.1469 45.2156 21.2766 45.5062C12.6844 46.8421 5.625 50.325 5.625 56.6015V58.1156H54.375V56.6015C54.375 50.6765 47.3672 47.0062 38.7656 45.5671Z" fill="url(#paint2_linear_234_1066)"/>
<path d="M48.8016 58.1156H10.8C10.9266 55.2375 11.4047 51.6375 12.7125 47.8734C12.7125 47.8734 13.6922 47.3766 15.2812 46.8141C15.7734 46.6359 16.3266 46.4531 16.9265 46.2797C18.1922 45.9047 19.6734 45.5625 21.2531 45.375L22.3828 52.1859L29.7281 48.3328H30.3234L37.6687 52.1859L38.7984 45.375C43.5281 45.9375 47.3391 47.8734 47.3391 47.8734C48.6469 51.6375 48.9187 55.2375 48.8016 58.1156Z" fill="url(#paint3_linear_234_1066)"/>
<path d="M16.9266 46.2798C15.6281 50.8642 15.0141 55.5938 14.8922 58.1157H13.4766C13.5797 55.6829 14.1141 51.2673 15.2812 46.8142C15.7734 46.636 16.3266 46.4532 16.9266 46.2798Z" fill="url(#paint4_linear_234_1066)"/>
<path d="M46.5234 58.1157C46.4156 55.6079 45.7875 51.3001 44.5453 46.7251L42.8953 46.2095C44.2688 50.9204 44.9813 55.5188 45.1078 58.1157H46.5234Z" fill="url(#paint5_linear_234_1066)"/>
<path d="M34.7391 43.0688L33 44.9392L32.3765 45.6095L31.739 46.2938L30.0281 48.136L28.3078 46.2892L27.675 45.6095L27.0469 44.9345L25.3125 43.0688L21.2531 45.3751L21.2765 45.5063L21.3937 46.2142L21.5062 46.8985L22.3828 52.186L30.0281 48.1782L37.6687 52.186L38.5359 46.9548L38.6531 46.2563L38.7656 45.5673L38.7984 45.3751L34.7391 43.0688Z" fill="url(#paint6_linear_234_1066)"/>
<path d="M47.3344 58.1156L47.7 56.85L47.9953 55.8281L47.9672 55.8187L47.9719 55.7953L47.2453 55.5891L48.0141 52.9078C48.061 52.7437 48.0563 52.5797 48.0141 52.4297C48.0141 52.425 48.0094 52.4156 48.0094 52.4109C48.006 52.3943 47.9997 52.3784 47.9906 52.3641C47.9109 52.1109 47.7281 51.9094 47.4797 51.8344L47.4094 51.8156H47.4047L45.6469 51.3094L29.2688 46.6031C29.2453 46.5984 29.2266 46.5984 29.2078 46.5891C28.4759 46.3964 27.6975 46.498 27.0396 46.8721C26.3816 47.2462 25.8962 47.8631 25.6875 48.5906L25.0125 50.9484C24.9656 51.1078 24.9141 51.2812 24.8578 51.4687L24.2391 53.6297L22.95 58.1203L47.3344 58.1156Z" fill="url(#paint7_linear_234_1066)"/>
<path d="M47.9437 58.1157L49.5703 52.4391C49.7062 51.9657 49.4344 51.4735 48.9609 51.3422L30.825 46.1391C30.0859 45.9278 29.2932 46.0185 28.6209 46.3911C27.9486 46.7637 27.4516 47.3879 27.2391 48.1266L24.375 58.1157H47.9437Z" fill="#424242"/>
<path d="M48.7594 58.1157L49.2563 56.3907C49.4203 55.8189 49.0781 55.2189 48.4969 55.0548L29.0344 49.4767C26.9109 48.8673 26.5406 50.5782 25.9453 52.6548L24.3797 58.1157H48.7594Z" fill="url(#paint8_linear_234_1066)"/>
<path opacity="0.2" d="M30.1547 47.611C30.239 47.611 30.3328 47.6204 30.4312 47.6438L47.8922 52.6594L47.7468 53.1657C42.2203 51.6235 31.6734 48.6563 29.4937 47.9344C29.6062 47.7797 29.8265 47.611 30.1547 47.611ZM30.1547 46.05C28.0359 46.05 26.9765 48.661 28.6922 49.3032C30.5812 50.0063 48.8156 55.0782 48.8156 55.0782L49.5562 52.4907C49.7015 51.9938 49.4672 51.4876 49.0359 51.3657L30.8297 46.1344C30.5953 46.0782 30.3703 46.05 30.1547 46.05Z" fill="#424242"/>
<path d="M48.4547 52.5562L29.7985 47.2031C29.2922 47.0578 28.7391 47.4187 28.5703 48.0046L28.5422 48.1078C28.3735 48.6937 28.65 49.2937 29.1563 49.439L47.8125 54.7921C47.8125 54.7921 47.6532 54.4031 47.8453 53.714C48.0375 53.0203 48.4547 52.5562 48.4547 52.5562Z" fill="url(#paint9_linear_234_1066)"/>
<mask id="mask0_234_1066" style="mask-type:luminance" maskUnits="userSpaceOnUse" x="24" y="49" width="26" height="10">
<path d="M49.5328 55.3267L28.6735 49.3923C27.0188 48.9235 26.8453 49.4954 26.4188 51.0001L24.3844 58.1157H49.7672L49.5328 55.3267Z" fill="white"/>
</mask>
<g mask="url(#mask0_234_1066)">
<path d="M26.1891 58.1156L29.8266 45.4453L26.8125 44.5781L22.9266 58.1156H26.1891Z" fill="url(#paint10_linear_234_1066)"/>
</g>
<path d="M42.811 23.6392H17.1891C14.4281 23.6392 12.1688 26.0485 12.1688 28.9876C12.1688 31.9267 14.4281 34.336 17.1891 34.336H42.8063C45.5672 34.336 47.8266 31.9267 47.8266 28.9876C47.8266 26.0485 45.5719 23.6392 42.811 23.6392Z" fill="#99674F"/>
<path d="M30 5.18896C21.8437 5.18896 14.2875 13.9124 14.2875 26.4702C14.2875 38.9577 22.0734 45.1312 30 45.1312C37.9265 45.1312 45.7125 38.953 45.7125 26.4655C45.7125 13.9124 38.1562 5.18896 30 5.18896Z" fill="#BA8D68"/>
<path d="M22.5891 29.9578C23.8654 29.9578 24.9 28.8874 24.9 27.5671C24.9 26.2468 23.8654 25.1765 22.5891 25.1765C21.3128 25.1765 20.2781 26.2468 20.2781 27.5671C20.2781 28.8874 21.3128 29.9578 22.5891 29.9578Z" fill="#49362E"/>
<path d="M37.1859 29.9578C38.4622 29.9578 39.4969 28.8874 39.4969 27.5671C39.4969 26.2468 38.4622 25.1765 37.1859 25.1765C35.9096 25.1765 34.875 26.2468 34.875 27.5671C34.875 28.8874 35.9096 29.9578 37.1859 29.9578Z" fill="#49362E"/>
<path d="M31.8094 31.9032C31.7578 31.8845 31.711 31.8704 31.6594 31.8657H28.3406C28.2891 31.8704 28.2375 31.8845 28.1906 31.9032C27.8906 32.0251 27.7266 32.3345 27.8672 32.6673C28.0078 33.0001 28.6688 33.9282 30 33.9282C31.3313 33.9282 31.9922 32.9954 32.1328 32.6673C32.2735 32.3345 32.1094 32.0251 31.8094 31.9032Z" fill="#99674F"/>
<path d="M33.9985 35.6906C32.5078 36.5765 27.6094 36.5765 26.1188 35.6906C25.261 35.1796 24.3844 35.9624 24.7407 36.7406C25.0922 37.5046 27.7594 39.2812 30.0703 39.2812C32.3813 39.2812 35.0157 37.5046 35.3672 36.7406C35.7188 35.9624 34.8563 35.1796 33.9985 35.6906Z" fill="#5D4037"/>
<path d="M18.7547 23.7751C20.1562 21.7923 23.339 21.6048 25.1625 23.0813C25.4531 23.3157 25.8375 23.6438 25.95 24.0095C26.1375 24.6048 25.5656 25.0688 25.0078 24.9282C24.6515 24.8391 24.3187 24.647 23.9672 24.5391C23.325 24.3376 22.8609 24.2813 22.2843 24.2813C21.4312 24.2766 20.8828 24.3845 20.0718 24.7126C19.739 24.8485 19.4672 25.0641 19.0875 24.9048C18.6515 24.7266 18.4875 24.1688 18.7547 23.7751ZM40.3453 24.9048C40.2093 24.8438 40.0781 24.7688 39.9422 24.7126C39.1078 24.3657 38.6343 24.2766 37.7297 24.2813C36.9328 24.286 36.4593 24.3938 35.8359 24.6048C35.4562 24.736 34.9734 25.0641 34.5515 24.9376C33.9328 24.7501 33.9515 24.0751 34.289 23.6438C34.6922 23.1376 35.2453 22.7532 35.8312 22.5001C37.1906 21.9095 38.85 21.9938 40.1297 22.7579C40.5468 23.0063 41.0015 23.3485 41.2547 23.7798C41.6203 24.3891 41.0672 25.2001 40.3453 24.9048Z" fill="#613E31"/>
<path d="M30 1.88916H29.9812C8.68591 2.00166 13.05 26.3298 13.05 26.3298C13.05 26.3298 14.0062 28.8376 14.4422 29.9438C14.5031 30.1032 14.7375 30.0845 14.775 29.9204C15.2297 27.886 16.8656 20.672 17.6906 18.4782C17.9263 17.8532 18.3742 17.3309 18.9561 17.0027C19.5379 16.6745 20.2166 16.5613 20.8734 16.6829C22.9593 17.0626 26.2875 17.5313 29.9531 17.5313H30.0281C33.6937 17.5313 37.0218 17.0626 39.1078 16.6829C40.4672 16.4345 41.8078 17.1892 42.2906 18.4782C43.1109 20.6626 44.7375 27.8345 45.1968 29.897C45.2343 30.0657 45.4687 30.0798 45.5297 29.9204L46.9265 26.3251C46.9359 26.3298 51.3 2.00166 30 1.88916Z" fill="#543930"/>
<path d="M46.936 26.3298C46.936 26.3298 51.3 2.00166 30 1.88916H29.9813C29.6485 1.88916 29.325 1.89854 29.0063 1.9126C28.3735 1.94072 27.7594 1.9876 27.1688 2.05791H27.15C27.1078 2.0626 27.0703 2.07197 27.0282 2.07666C9.10315 4.33135 13.05 26.3298 13.05 26.3298L14.4469 29.9298C14.5078 30.0892 14.7375 30.0751 14.775 29.9063C15.2344 27.8485 16.8657 20.6673 17.6907 18.4829C17.9264 17.8579 18.3743 17.3356 18.9561 17.0074C19.5379 16.6792 20.2166 16.566 20.8735 16.6876C22.9594 17.0673 26.2875 17.536 29.9532 17.536H30.0281C33.6938 17.536 37.0219 17.0673 39.1078 16.6876C40.4672 16.4392 41.8078 17.1938 42.2907 18.4829C43.1157 20.6767 44.7516 27.9048 45.2016 29.9298C45.2391 30.0985 45.4688 30.1126 45.5297 29.9532C45.975 28.847 46.936 26.3298 46.936 26.3298Z" fill="url(#paint11_radial_234_1066)"/>
<path d="M44.0297 24.8109C43.9969 24.253 43.9735 24.1968 43.2375 23.9624C42.661 23.7796 39.511 23.5218 37.1391 23.653C36.9703 23.6624 36.8063 23.6718 36.6516 23.6859C34.5 23.8687 31.9172 24.7359 29.9766 24.7827C29.1516 24.8015 25.7532 23.9109 23.3485 23.7234C23.1938 23.714 23.0391 23.6999 22.8797 23.6952C20.5032 23.5734 17.3391 23.8499 16.7625 24.0374C16.0266 24.2765 16.0032 24.3327 15.975 24.8905C15.9422 25.4437 16.036 25.9218 16.4719 26.0671C17.0672 26.264 17.0719 27.0046 17.4703 29.1327C17.8313 31.0734 18.6985 32.6062 22.425 32.8734C22.5844 32.8827 22.7344 32.8921 22.8844 32.8921C26.1797 32.939 27.3141 30.7687 27.6891 30.0468C28.3875 28.7062 28.1672 26.8593 30.0141 26.8546C31.8563 26.8499 31.6828 28.664 32.3907 29.9999C32.7703 30.7171 33.8766 32.8968 37.1438 32.8499C37.3032 32.8499 37.4672 32.8405 37.636 32.8265C41.3578 32.5359 42.2203 30.9984 42.5672 29.0577C42.9516 26.9249 42.9563 26.1796 43.5469 25.9827C43.9735 25.8421 44.0625 25.3687 44.0297 24.8109ZM25.0172 31.9546C24.4453 32.2218 23.6813 32.3577 22.875 32.3577C21.1922 32.353 19.3266 31.7624 18.6516 30.5718C17.6953 28.8749 17.4469 25.4437 18.6657 24.7265C19.2 24.4124 21.0047 24.1968 22.8703 24.2765C24.8063 24.3609 26.8078 24.764 27.5297 25.7109C28.7297 27.2718 26.8266 31.1015 25.0172 31.9546ZM41.3766 30.5015C40.7063 31.7015 38.8266 32.3062 37.1344 32.3109C36.3375 32.3155 35.5828 32.1843 35.0203 31.9218C33.2063 31.078 31.2844 27.2624 32.4657 25.6921C33.1828 24.7359 35.1938 24.3234 37.1344 24.2296C38.9953 24.1405 40.7953 24.3468 41.325 24.6562C42.5532 25.3687 42.3235 28.7999 41.3766 30.5015Z" fill="#212121" stroke="#212121" stroke-width="0.06875" stroke-miterlimit="10"/>
<defs>
<linearGradient id="paint0_linear_234_1066" x1="29.9995" y1="5.34141" x2="29.9995" y2="41.4792" gradientUnits="userSpaceOnUse">
<stop stop-color="#26A69A"/>
<stop offset="1" stop-color="#00796B"/>
</linearGradient>
<linearGradient id="paint1_linear_234_1066" x1="29.9995" y1="4.00547" x2="29.9995" y2="42.5512" gradientUnits="userSpaceOnUse">
<stop stop-color="#8D6E63"/>
<stop offset="0.779" stop-color="#795548"/>
</linearGradient>
<linearGradient id="paint2_linear_234_1066" x1="30" y1="45.0356" x2="30" y2="57.5939" gradientUnits="userSpaceOnUse">
<stop stop-color="#E1F5FE"/>
<stop offset="1" stop-color="#81D4FA"/>
</linearGradient>
<linearGradient id="paint3_linear_234_1066" x1="29.813" y1="45.375" x2="29.813" y2="57.7369" gradientUnits="userSpaceOnUse">
<stop stop-color="#00BFA5"/>
<stop offset="1" stop-color="#00AB94"/>
</linearGradient>
<linearGradient id="paint4_linear_234_1066" x1="15.2016" y1="44.6443" x2="15.2016" y2="57.6788" gradientUnits="userSpaceOnUse">
<stop stop-color="#B2DFDB" stop-opacity="0.2"/>
<stop offset="0.767" stop-color="#B2DFDB" stop-opacity="0.6"/>
</linearGradient>
<linearGradient id="paint5_linear_234_1066" x1="44.7108" y1="44.5646" x2="44.7108" y2="57.6774" gradientUnits="userSpaceOnUse">
<stop stop-color="#B2DFDB" stop-opacity="0.2"/>
<stop offset="0.767" stop-color="#B2DFDB" stop-opacity="0.6"/>
</linearGradient>
<linearGradient id="paint6_linear_234_1066" x1="30.0258" y1="54.2359" x2="30.0258" y2="43.5076" gradientUnits="userSpaceOnUse">
<stop stop-color="#E1F5FE"/>
<stop offset="1" stop-color="#81D4FA"/>
</linearGradient>
<linearGradient id="paint7_linear_234_1066" x1="37.1011" y1="50.1014" x2="34.1325" y2="62.6016" gradientUnits="userSpaceOnUse">
<stop offset="0.002" stop-color="#212121" stop-opacity="0.2"/>
<stop offset="1" stop-color="#212121" stop-opacity="0.6"/>
</linearGradient>
<linearGradient id="paint8_linear_234_1066" x1="38.385" y1="51.91" x2="35.9635" y2="60.0348" gradientUnits="userSpaceOnUse">
<stop stop-color="#EF5350"/>
<stop offset="1" stop-color="#E53935"/>
</linearGradient>
<linearGradient id="paint9_linear_234_1066" x1="28.558" y1="48.055" x2="48.1325" y2="53.6723" gradientUnits="userSpaceOnUse">
<stop offset="0.01" stop-color="#BDBDBD"/>
<stop offset="0.987" stop-color="#F5F5F5"/>
</linearGradient>
<linearGradient id="paint10_linear_234_1066" x1="24.6352" y1="57.2091" x2="26.686" y2="50.7638" gradientUnits="userSpaceOnUse">
<stop stop-color="#212121"/>
<stop offset="1" stop-color="#424242"/>
</linearGradient>
<radialGradient id="paint11_radial_234_1066" cx="0" cy="0" r="1" gradientUnits="userSpaceOnUse" gradientTransform="translate(29.9921 22.077) scale(17.8561 20.1452)">
<stop offset="0.794" stop-color="#6D4C41" stop-opacity="0"/>
<stop offset="1" stop-color="#6D4C41"/>
</radialGradient>
</defs>
</svg>
