<svg width="18" height="18" viewBox="0 0 18 18" fill="none" xmlns="http://www.w3.org/2000/svg">
<g clip-path="url(#clip0_225_691)">
<path d="M17.3711 7.51033H16.6834V7.4749H8.99975V10.8898H13.8246C13.1207 12.8778 11.2293 14.3048 8.99975 14.3048C6.1709 14.3048 3.87734 12.0112 3.87734 9.18237C3.87734 6.35352 6.1709 4.05996 8.99975 4.05996C10.3055 4.05996 11.4935 4.55257 12.398 5.35721L14.8128 2.94242C13.2881 1.52138 11.2485 0.64502 8.99975 0.64502C4.285 0.64502 0.462402 4.46762 0.462402 9.18237C0.462402 13.8971 4.285 17.7197 8.99975 17.7197C13.7145 17.7197 17.5371 13.8971 17.5371 9.18237C17.5371 8.60994 17.4782 8.05117 17.3711 7.51033Z" fill="#FFC107"/>
<path d="M1.44629 5.20866L4.25124 7.26574C5.01021 5.38666 6.8483 4.05996 8.99929 4.05996C10.3051 4.05996 11.493 4.55257 12.3976 5.35721L14.8124 2.94242C13.2876 1.52138 11.248 0.64502 8.99929 0.64502C5.72009 0.64502 2.8763 2.49634 1.44629 5.20866Z" fill="#FF3D00"/>
<path d="M8.99979 17.72C11.205 17.72 13.2087 16.8761 14.7237 15.5037L12.0813 13.2678C11.1954 13.9416 10.1128 14.306 8.99979 14.3051C6.77923 14.3051 4.89375 12.8892 4.18344 10.9132L1.39941 13.0582C2.81235 15.823 5.68175 17.72 8.99979 17.72Z" fill="#4CAF50"/>
<path d="M17.3711 7.51028H16.6834V7.47485H8.99976V10.8898H13.8246C13.4879 11.8359 12.8814 12.6627 12.08 13.2679L12.0813 13.267L14.7236 15.503C14.5367 15.6728 17.5371 13.451 17.5371 9.18232C17.5371 8.60989 17.4782 8.05112 17.3711 7.51028Z" fill="#1976D2"/>
</g>
<defs>
<clipPath id="clip0_225_691">
<rect x="0.462402" y="0.64502" width="17.075" height="17.075" rx="8.5375" fill="white"/>
</clipPath>
</defs>
</svg>
