<svg width="60" height="60" viewBox="0 0 60 60" fill="none" xmlns="http://www.w3.org/2000/svg">
<path d="M45 56.6063V58.1063H1.875V56.6063C1.875 52.8844 4.06875 50.1422 7.43906 48.2532C11.6109 45.9094 17.5875 44.8688 23.4375 44.8594C29.2875 44.8501 35.2266 46.0266 39.3844 48.3938C42.7922 50.3297 45 53.0672 45 56.6063Z" fill="url(#paint0_linear_234_553)"/>
<path d="M23.4374 43.2798H19.1812V47.9579C19.1812 50.072 20.9155 51.7876 23.053 51.7876H23.8265C25.964 51.7876 27.6983 50.072 27.6983 47.9579V43.2798H23.4374Z" fill="#C48E6A"/>
<path d="M48.8439 49.0359L46.9502 58.1062H54.0189V56.6062C54.0236 53.4421 52.0221 50.9156 48.8439 49.0359Z" fill="#1B2B8F"/>
<path d="M27.8018 48.9937H18.4736L22.1768 58.1062H24.5393L27.8018 48.9937Z" fill="#F5F5F5"/>
<path d="M19.1625 44.9673L15.5156 45.3892L11.7656 53.4751L16.8656 51.4642L21.3422 58.1063H22.6172L19.1625 44.9673Z" fill="url(#paint1_linear_234_553)"/>
<path d="M31.3643 45.3892L27.7127 44.9673L24.2627 58.1063H25.6689L30.3799 51.5438L35.1143 53.4751L31.3643 45.3892Z" fill="url(#paint2_linear_234_553)"/>
<path d="M57.1032 26.5827C56.9438 26.3015 56.672 26.1702 56.4048 26.1702C56.0485 26.1702 55.7017 26.3999 55.622 26.8171L54.9376 30.5202C54.8907 30.7687 54.7313 30.9843 54.5017 31.0921L50.7142 32.9062C50.5632 32.9805 50.3923 33.0042 50.2269 32.9738C50.0614 32.9434 49.9101 32.8605 49.7954 32.7374L46.9079 29.6905C46.7345 29.5077 46.6595 29.2499 46.7017 29.0015L47.386 25.2983C47.4845 24.764 47.0626 24.3608 46.5985 24.3608C46.4251 24.3608 46.247 24.4171 46.0876 24.5483C44.7048 25.6968 43.6876 27.3468 43.3267 29.2921C42.8157 32.0577 43.7532 34.7343 45.586 36.478C46.411 37.2655 46.8048 38.3999 46.5985 39.5202L43.1626 58.1108H48.0001L51.2767 40.3827C51.4829 39.2624 52.2563 38.3437 53.3063 37.903C55.6407 36.928 57.4735 34.7671 57.9845 31.9968C58.3454 30.0515 57.9845 28.1437 57.1032 26.5827Z" fill="url(#paint3_linear_234_553)"/>
<path d="M44.297 54.9892L43.4064 55.997C43.4064 55.997 40.7439 55.4298 41.0579 53.8876C41.1329 53.522 41.7892 52.7438 41.7892 52.7438C41.7892 52.7438 40.4533 51.6423 40.6642 50.897C40.8751 50.161 42.1501 49.5892 42.1501 49.5892C42.1501 49.5892 41.1611 48.9985 41.5501 47.8876C41.8173 47.1282 43.2048 46.8751 43.2048 46.8751C43.2048 46.8751 41.9111 44.9767 44.5407 44.5454C45.3704 44.4095 47.2314 44.686 48.9001 45.9188C50.5689 47.1517 51.3329 47.8923 52.1017 49.5142C53.2736 51.9751 51.2017 56.1938 49.6126 56.2313C48.2907 56.2595 44.297 54.9892 44.297 54.9892Z" fill="url(#paint4_linear_234_553)"/>
<path d="M36.2203 23.5454H10.5984C7.8375 23.5454 5.57812 25.9501 5.57812 28.8938C5.57812 31.8376 7.8375 34.2423 10.5984 34.2423H36.2203C38.9813 34.2423 41.2406 31.8329 41.2406 28.8938C41.2406 25.9548 38.9813 23.5454 36.2203 23.5454Z" fill="#C48E6A"/>
<path d="M23.4093 5.09058C15.253 5.09058 7.69678 13.814 7.69678 26.3718C7.69678 38.8593 15.4827 45.0328 23.4093 45.0328C31.3358 45.0328 39.1218 38.8593 39.1218 26.3718C39.1218 13.814 31.5655 5.09058 23.4093 5.09058Z" fill="#E0BB95"/>
<path d="M15.9984 29.8594C17.2747 29.8594 18.3094 28.7891 18.3094 27.4687C18.3094 26.1484 17.2747 25.0781 15.9984 25.0781C14.7221 25.0781 13.6875 26.1484 13.6875 27.4687C13.6875 28.7891 14.7221 29.8594 15.9984 29.8594Z" fill="#5D4037"/>
<path d="M30.6 29.8594C31.8763 29.8594 32.9109 28.7891 32.9109 27.4687C32.9109 26.1484 31.8763 25.0781 30.6 25.0781C29.3237 25.0781 28.2891 26.1484 28.2891 27.4687C28.2891 28.7891 29.3237 29.8594 30.6 29.8594Z" fill="#5D4037"/>
<path d="M12.1548 23.6812C12.1548 23.6812 12.2157 23.5922 12.3329 23.4422C12.3657 23.4047 12.3892 23.3672 12.4361 23.3203C12.4876 23.2687 12.5439 23.2172 12.6048 23.1656C12.6704 23.1094 12.7361 23.0531 12.8064 22.9875C12.8767 22.9266 12.9517 22.8844 13.0314 22.8234C13.1111 22.7672 13.1907 22.7109 13.2798 22.6594C13.3689 22.6125 13.4673 22.5609 13.5611 22.5094C13.6595 22.4531 13.7626 22.4109 13.8704 22.3688C13.9782 22.3266 14.0907 22.2844 14.2032 22.2422C14.4329 22.1766 14.672 22.1062 14.9251 22.0734C15.1736 22.0266 15.4314 22.0219 15.6845 22.0078C15.9423 22.0219 16.2001 22.0219 16.4439 22.0734C16.6923 22.1016 16.9361 22.1766 17.1657 22.2422C17.2782 22.2797 17.3907 22.3219 17.4986 22.3688C17.6064 22.4109 17.7095 22.4531 17.8079 22.5094C17.9064 22.5609 18.0001 22.6125 18.0892 22.6594C18.1782 22.7109 18.2626 22.7719 18.3376 22.8234C18.4173 22.8797 18.4923 22.9266 18.5579 22.9828C18.6236 23.0391 18.6845 23.0953 18.7454 23.1469C18.8017 23.1984 18.8579 23.2453 18.9048 23.2922C18.9517 23.3391 18.9892 23.3906 19.0267 23.4281C19.172 23.5969 19.2423 23.7 19.2423 23.7C19.4814 24.0281 19.4064 24.4922 19.0736 24.7266C18.872 24.8719 18.6236 24.9 18.4032 24.825L18.2673 24.7781C18.2673 24.7781 18.1782 24.7453 18.0376 24.6844C18.0001 24.6703 17.9673 24.6516 17.9204 24.6328C17.8736 24.6187 17.8314 24.6 17.7798 24.5812C17.6814 24.5437 17.5736 24.5016 17.4517 24.4687C17.3907 24.45 17.3298 24.4266 17.2642 24.4078C17.1986 24.3937 17.1329 24.375 17.0626 24.3562L16.9595 24.3281C16.922 24.3234 16.8892 24.3141 16.8517 24.3094C16.7767 24.2953 16.7064 24.2766 16.6314 24.2625C16.4767 24.2437 16.322 24.2109 16.1626 24.2062C16.0032 24.1875 15.8392 24.1922 15.6798 24.1828C15.5157 24.1922 15.3564 24.1875 15.197 24.2062C15.0376 24.2156 14.8829 24.2484 14.7282 24.2625C14.6532 24.2766 14.5782 24.2953 14.5079 24.3094C14.4704 24.3141 14.4329 24.3234 14.4001 24.3281L14.297 24.3562C14.2267 24.375 14.1611 24.3891 14.0954 24.4078C14.0298 24.4266 13.9689 24.45 13.9079 24.4687C13.847 24.4875 13.7907 24.5063 13.7345 24.5203C13.6876 24.5391 13.6407 24.5531 13.5986 24.5672L13.472 24.6094C13.4251 24.6281 13.3782 24.6562 13.3361 24.675C13.1673 24.7594 13.0689 24.8016 13.0689 24.8016C12.6798 24.9609 12.2392 24.7781 12.0798 24.3937C11.9814 24.1547 12.0189 23.8875 12.1548 23.6812ZM33.7454 24.8062C33.7454 24.8062 33.647 24.7641 33.4782 24.6797C33.4361 24.6609 33.3892 24.6328 33.3423 24.6141C33.3001 24.6047 33.2579 24.5859 33.2157 24.5719C33.1736 24.5578 33.1267 24.5391 33.0798 24.525C33.0236 24.5062 32.9673 24.4922 32.9064 24.4734C32.8454 24.4547 32.7845 24.4313 32.7236 24.4125C32.6579 24.3984 32.5923 24.3797 32.522 24.3609L32.4189 24.3328C32.3814 24.3281 32.3486 24.3187 32.3111 24.3141C32.2361 24.3 32.1657 24.2812 32.0907 24.2672C31.9361 24.2484 31.7814 24.2156 31.622 24.2109C31.4626 24.1922 31.2986 24.1969 31.1392 24.1875C30.9751 24.1969 30.8157 24.1922 30.6564 24.2109C30.497 24.2203 30.3423 24.2531 30.1876 24.2672C30.1126 24.2812 30.0376 24.3 29.9673 24.3141C29.9298 24.3187 29.8923 24.3281 29.8595 24.3328L29.7564 24.3609C29.6861 24.3797 29.6204 24.3984 29.5548 24.4125C29.4892 24.4313 29.4282 24.4547 29.3673 24.4734C29.2454 24.5062 29.1376 24.5484 29.0392 24.5859C28.9923 24.6047 28.9454 24.6234 28.8986 24.6375C28.8564 24.6562 28.8189 24.675 28.7814 24.6891C28.6407 24.75 28.5517 24.7828 28.5517 24.7828L28.4204 24.8297C28.0361 24.9656 27.6142 24.7594 27.4829 24.375C27.4032 24.1406 27.4454 23.8922 27.5814 23.7C27.5814 23.7 27.6517 23.5969 27.797 23.4281C27.8345 23.3859 27.872 23.3391 27.9189 23.2922C27.9657 23.2453 28.022 23.1984 28.0782 23.1469C28.1345 23.0953 28.2001 23.0391 28.2657 22.9828C28.3314 22.9266 28.4111 22.8797 28.4861 22.8234C28.5657 22.7672 28.6454 22.7109 28.7345 22.6594C28.8236 22.6125 28.922 22.5609 29.0157 22.5094C29.1142 22.4531 29.2173 22.4109 29.3251 22.3688C29.4329 22.3266 29.5454 22.2844 29.6579 22.2422C29.8876 22.1766 30.1267 22.1062 30.3798 22.0734C30.6282 22.0266 30.8861 22.0219 31.1392 22.0078C31.397 22.0219 31.6548 22.0219 31.8986 22.0734C32.1517 22.1016 32.3907 22.1766 32.6204 22.2422C32.7329 22.2797 32.8454 22.3219 32.9532 22.3688C33.0611 22.4109 33.1642 22.4531 33.2626 22.5094C33.3611 22.5609 33.4548 22.6125 33.5439 22.6594C33.6329 22.7109 33.7126 22.7719 33.7923 22.8234C33.872 22.8797 33.9423 22.9266 34.0173 22.9875C34.0876 23.0484 34.1579 23.1094 34.2189 23.1656C34.2798 23.2219 34.3407 23.2734 34.3876 23.3203C34.4298 23.3672 34.4579 23.4047 34.4907 23.4422C34.6079 23.5875 34.6689 23.6812 34.6689 23.6812C34.9032 24.0281 34.8142 24.4969 34.4673 24.7359C34.247 24.8812 33.9751 24.9 33.7454 24.8062Z" fill="#AB872F"/>
<path d="M25.2188 31.8046C25.1672 31.7858 25.1203 31.7718 25.0688 31.7671H21.75C21.6984 31.7718 21.6469 31.7858 21.6 31.8046C21.3 31.9265 21.1359 32.2358 21.2766 32.5687C21.4172 32.9015 22.0781 33.8296 23.4094 33.8296C24.7406 33.8296 25.4016 32.8968 25.5422 32.5687C25.6828 32.2405 25.5188 31.9265 25.2188 31.8046Z" fill="#C48E6A"/>
<path d="M27.4076 35.5969C25.9123 36.4828 21.0186 36.4828 19.528 35.5969C18.6701 35.0859 17.7936 35.8687 18.1498 36.6469C18.5014 37.4109 21.1686 39.1875 23.4795 39.1875C25.7905 39.1875 28.4248 37.4109 28.7764 36.6469C29.128 35.864 28.2655 35.0859 27.4076 35.5969Z" fill="#6D4C41"/>
<path d="M23.4187 2.13281H23.4C2.10468 2.24531 6.46405 26.5734 6.46405 26.5734C6.46405 26.5734 7.4203 29.0813 7.85624 30.1875C7.91718 30.3469 8.15155 30.3281 8.18905 30.1641C8.64374 28.1297 10.2797 20.9156 11.1047 18.7266C11.3409 18.1009 11.7896 17.5782 12.3724 17.25C12.9551 16.9218 13.6347 16.8089 14.2922 16.9312C16.3781 17.3109 19.7062 17.7797 23.3719 17.7797H23.4469C27.1172 17.7797 30.4406 17.3109 32.5266 16.9312C33.8859 16.6828 35.2266 17.4375 35.7094 18.7266C36.5297 20.9109 38.1562 28.0828 38.6156 30.1453C38.6531 30.3141 38.8875 30.3281 38.9484 30.1688L40.3453 26.5734C40.3547 26.5734 44.7187 2.24531 23.4187 2.13281Z" fill="#AB872F"/>
<path d="M40.3547 26.5734C40.3547 26.5734 44.7188 2.24531 23.4188 2.13281H23.4C23.0672 2.13281 22.7438 2.14219 22.425 2.15625C21.7922 2.18437 21.1781 2.23125 20.5875 2.30156H20.5688C20.5266 2.30625 20.4891 2.31562 20.4469 2.32031C2.52189 4.575 6.46408 26.5734 6.46408 26.5734L7.86096 30.1734C7.92189 30.3328 8.15158 30.3188 8.18908 30.15C8.64846 28.0922 10.2797 20.9109 11.1047 18.7266C11.3409 18.1009 11.7897 17.5782 12.3724 17.25C12.9551 16.9218 13.6347 16.8089 14.2922 16.9312C16.3781 17.3109 19.7063 17.7797 23.3719 17.7797H23.4469C27.1172 17.7797 30.4406 17.3109 32.5266 16.9312C33.886 16.6828 35.2266 17.4375 35.7094 18.7266C36.5344 20.9203 38.1703 28.1484 38.6203 30.1734C38.6578 30.3422 38.8875 30.3562 38.9485 30.1969C39.3938 29.0906 40.3547 26.5734 40.3547 26.5734Z" fill="url(#paint5_radial_234_553)"/>
<path d="M23.311 2.13281C33.9985 2.13281 40.3922 8.26875 40.7813 20.9859C40.7813 20.9859 36.211 17.2266 23.5454 17.2266C9.83441 17.2266 6.07973 21.2297 6.09379 20.7891C6.5766 8.00625 12.7922 2.13281 23.5454 2.13281H23.311Z" fill="url(#paint6_linear_234_553)"/>
<path d="M12.6235 16.1297C12.6235 7.34531 16.8282 2.625 23.311 2.625C29.7938 2.625 33.9985 7.53281 33.9985 16.1297C33.9985 23.1141 28.9454 17.6156 23.311 17.6156C17.6767 17.6156 12.6235 23.1187 12.6235 16.1297Z" fill="url(#paint7_linear_234_553)"/>
<path d="M23.475 13.3313C13.2703 13.3313 8.37653 18.9047 8.37653 18.9047C8.36715 19.8282 9.40778 21.4922 11.775 21.8719C15.0328 22.3969 17.1375 19.7625 23.4234 19.7625H23.4562V19.7485L23.475 19.7625H23.5078C29.7937 19.7625 31.8937 22.3922 35.1562 21.8719C37.5234 21.4922 38.3859 20.0672 38.3765 19.1485C38.3765 19.1485 33.8015 13.3313 23.475 13.3313Z" fill="#5E97F6"/>
<defs>
<linearGradient id="paint0_linear_234_553" x1="23.4398" y1="44.8594" x2="23.4398" y2="61.4677" gradientUnits="userSpaceOnUse">
<stop offset="0.003" stop-color="#303F9F"/>
<stop offset="0.472" stop-color="#273492"/>
<stop offset="1" stop-color="#1A237E"/>
</linearGradient>
<linearGradient id="paint1_linear_234_553" x1="14.363" y1="46.524" x2="19.3336" y2="58.6895" gradientUnits="userSpaceOnUse">
<stop stop-color="#5C6BC0"/>
<stop offset="1" stop-color="#3949AB"/>
</linearGradient>
<linearGradient id="paint2_linear_234_553" x1="32.3533" y1="45.9503" x2="28.6905" y2="58.7049" gradientUnits="userSpaceOnUse">
<stop stop-color="#5C6BC0"/>
<stop offset="1" stop-color="#3949AB"/>
</linearGradient>
<linearGradient id="paint3_linear_234_553" x1="51.6212" y1="24.6154" x2="46.3449" y2="57.6679" gradientUnits="userSpaceOnUse">
<stop stop-color="#90A4AE"/>
<stop offset="0.267" stop-color="#889DA8"/>
<stop offset="0.584" stop-color="#78909C"/>
<stop offset="1" stop-color="#607D8B"/>
</linearGradient>
<linearGradient id="paint4_linear_234_553" x1="40.6464" y1="50.3701" x2="52.4509" y2="50.3701" gradientUnits="userSpaceOnUse">
<stop stop-color="#CCA47A"/>
<stop offset="0.5" stop-color="#E0BB95"/>
</linearGradient>
<radialGradient id="paint5_radial_234_553" cx="0" cy="0" r="1" gradientUnits="userSpaceOnUse" gradientTransform="translate(23.4099 22.32) scale(17.8561 20.1452)">
<stop offset="0.794" stop-color="#BFA055" stop-opacity="0"/>
<stop offset="1" stop-color="#BFA055"/>
</radialGradient>
<linearGradient id="paint6_linear_234_553" x1="23.4357" y1="18.2058" x2="23.4357" y2="-0.645938" gradientUnits="userSpaceOnUse">
<stop stop-color="#0068B5"/>
<stop offset="0.807" stop-color="#4C8EEA"/>
<stop offset="1" stop-color="#5E97F6"/>
</linearGradient>
<linearGradient id="paint7_linear_234_553" x1="23.3087" y1="21.292" x2="23.3087" y2="9.21891" gradientUnits="userSpaceOnUse">
<stop stop-color="#0068B5"/>
<stop offset="1" stop-color="#5E97F6"/>
</linearGradient>
</defs>
</svg>
