<svg width="60" height="60" viewBox="0 0 60 60" fill="none" xmlns="http://www.w3.org/2000/svg">
<path d="M2.98145 5.10938H57.0236V41.4469H2.98145V5.10938Z" fill="url(#paint0_linear_234_563)"/>
<path d="M55.9172 6.21563V40.3453H4.08281V6.21563H55.9172ZM58.125 4.00781H1.875V42.5531H58.125V4.00781Z" fill="url(#paint1_linear_234_563)"/>
<path d="M30 42.5532H25.5469V47.6298C25.5469 49.9267 27.3609 51.7876 29.5922 51.7876H30.4031C32.6391 51.7876 34.4484 49.9267 34.4484 47.6298V42.5532H30Z" fill="#99674F"/>
<path d="M38.7656 45.5671C36.9 45.2484 34.9594 45.0421 33 44.939L31.7391 46.2937L30.0281 48.1359L28.3078 46.289L27.0469 44.9343C25.0875 45.0281 23.1469 45.2156 21.2766 45.5062C12.6844 46.8421 5.625 50.325 5.625 56.6015V58.1156H54.375V56.6015C54.375 50.6765 47.3672 47.0062 38.7656 45.5671Z" fill="url(#paint2_linear_234_563)"/>
<path d="M48.8014 58.1156H10.7998C10.9264 55.2375 11.4045 51.6375 12.7123 47.8734C12.7123 47.8734 13.692 47.3766 15.2811 46.8141C15.7732 46.6359 16.3264 46.4531 16.9264 46.2797C18.192 45.9047 19.6732 45.5625 21.2529 45.375L22.3826 52.1859L29.7279 48.3328H30.3232L37.6686 52.1859L38.7982 45.375C43.5279 45.9375 47.3389 47.8734 47.3389 47.8734C48.6467 51.6375 48.9186 55.2375 48.8014 58.1156Z" fill="url(#paint3_linear_234_563)"/>
<path d="M16.9266 46.2798C15.6281 50.8642 15.0141 55.5938 14.8922 58.1157H13.4766C13.5797 55.6829 14.1141 51.2673 15.2812 46.8142C15.7734 46.636 16.3266 46.4532 16.9266 46.2798Z" fill="url(#paint4_linear_234_563)"/>
<path d="M46.5236 58.1157C46.4158 55.6079 45.7877 51.3001 44.5455 46.7251L42.8955 46.2095C44.2689 50.9204 44.9814 55.5188 45.108 58.1157H46.5236Z" fill="url(#paint5_linear_234_563)"/>
<path d="M34.7389 43.0688L32.9998 44.9392L32.3764 45.6095L31.7389 46.2938L30.0279 48.136L28.3076 46.2892L27.6748 45.6095L27.0467 44.9345L25.3123 43.0688L21.2529 45.3751L21.2764 45.5063L21.3936 46.2142L21.5061 46.8985L22.3826 52.186L30.0279 48.1782L37.6686 52.186L38.5357 46.9548L38.6529 46.2563L38.7654 45.5673L38.7982 45.3751L34.7389 43.0688Z" fill="url(#paint6_linear_234_563)"/>
<path d="M47.3346 58.1156L47.7002 56.85L47.9955 55.8281L47.9674 55.8187L47.9721 55.7953L47.2455 55.5891L48.0143 52.9078C48.0611 52.7437 48.0564 52.5797 48.0143 52.4297C48.0143 52.425 48.0096 52.4156 48.0096 52.4109C48.0062 52.3943 47.9998 52.3784 47.9908 52.3641C47.9111 52.1109 47.7283 51.9094 47.4799 51.8344L47.4096 51.8156H47.4049L45.6471 51.3094L29.2689 46.6031C29.2455 46.5984 29.2268 46.5984 29.208 46.5891C28.476 46.3964 27.6977 46.498 27.0397 46.8721C26.3818 47.2462 25.8964 47.8631 25.6877 48.5906L25.0127 50.9484C24.9658 51.1078 24.9143 51.2812 24.858 51.4687L24.2393 53.6297L22.9502 58.1203L47.3346 58.1156Z" fill="url(#paint7_linear_234_563)"/>
<path d="M47.9437 58.1157L49.5703 52.4391C49.7062 51.9657 49.4344 51.4735 48.9609 51.3422L30.825 46.1391C30.0859 45.9278 29.2932 46.0185 28.6209 46.3911C27.9486 46.7637 27.4516 47.3879 27.2391 48.1266L24.375 58.1157H47.9437Z" fill="#424242"/>
<path d="M48.7596 58.1157L49.2564 56.3907C49.4205 55.8189 49.0783 55.2189 48.4971 55.0548L29.0346 49.4767C26.9111 48.8673 26.5408 50.5782 25.9455 52.6548L24.3799 58.1157H48.7596Z" fill="url(#paint8_linear_234_563)"/>
<path opacity="0.2" d="M30.1547 47.611C30.239 47.611 30.3328 47.6204 30.4312 47.6438L47.8922 52.6594L47.7468 53.1657C42.2203 51.6235 31.6734 48.6563 29.4937 47.9344C29.6062 47.7797 29.8265 47.611 30.1547 47.611ZM30.1547 46.05C28.0359 46.05 26.9765 48.661 28.6922 49.3032C30.5812 50.0063 48.8156 55.0782 48.8156 55.0782L49.5562 52.4907C49.7015 51.9938 49.4672 51.4876 49.0359 51.3657L30.8297 46.1344C30.5953 46.0782 30.3703 46.05 30.1547 46.05Z" fill="#424242"/>
<path d="M48.4547 52.5562L29.7985 47.2031C29.2922 47.0578 28.7391 47.4187 28.5703 48.0046L28.5422 48.1078C28.3735 48.6937 28.65 49.2937 29.1563 49.439L47.8125 54.7921C47.8125 54.7921 47.6532 54.4031 47.8453 53.714C48.0375 53.0203 48.4547 52.5562 48.4547 52.5562Z" fill="url(#paint9_linear_234_563)"/>
<mask id="mask0_234_563" style="mask-type:luminance" maskUnits="userSpaceOnUse" x="24" y="49" width="26" height="10">
<path d="M49.5327 55.3267L28.6733 49.3923C27.0187 48.9235 26.8452 49.4954 26.4187 51.0001L24.3843 58.1157H49.7671L49.5327 55.3267Z" fill="white"/>
</mask>
<g mask="url(#mask0_234_563)">
<path d="M26.1888 58.1156L29.8263 45.4453L26.8122 44.5781L22.9263 58.1156H26.1888Z" fill="url(#paint10_linear_234_563)"/>
</g>
<path d="M42.8111 23.6392H17.1893C14.4283 23.6392 12.1689 26.0485 12.1689 28.9876C12.1689 31.9267 14.4283 34.336 17.1893 34.336H42.8064C45.5674 34.336 47.8268 31.9267 47.8268 28.9876C47.8268 26.0485 45.5721 23.6392 42.8111 23.6392Z" fill="#99674F"/>
<path d="M30.0001 5.18896C21.8438 5.18896 14.2876 13.9124 14.2876 26.4702C14.2876 38.9577 22.0735 45.1312 30.0001 45.1312C37.9267 45.1312 45.7126 38.953 45.7126 26.4655C45.7126 13.9124 38.1563 5.18896 30.0001 5.18896Z" fill="#BA8D68"/>
<path d="M22.5893 29.9578C23.8656 29.9578 24.9002 28.8874 24.9002 27.5671C24.9002 26.2468 23.8656 25.1765 22.5893 25.1765C21.313 25.1765 20.2783 26.2468 20.2783 27.5671C20.2783 28.8874 21.313 29.9578 22.5893 29.9578Z" fill="#49362E"/>
<path d="M37.1859 29.9578C38.4622 29.9578 39.4969 28.8874 39.4969 27.5671C39.4969 26.2468 38.4622 25.1765 37.1859 25.1765C35.9096 25.1765 34.875 26.2468 34.875 27.5671C34.875 28.8874 35.9096 29.9578 37.1859 29.9578Z" fill="#49362E"/>
<path d="M31.8096 31.9032C31.758 31.8845 31.7111 31.8704 31.6596 31.8657H28.3408C28.2893 31.8704 28.2377 31.8845 28.1908 31.9032C27.8908 32.0251 27.7268 32.3345 27.8674 32.6673C28.008 33.0001 28.6689 33.9282 30.0002 33.9282C31.3314 33.9282 31.9924 32.9954 32.133 32.6673C32.2736 32.3345 32.1096 32.0251 31.8096 31.9032Z" fill="#99674F"/>
<path d="M33.9985 35.6906C32.5078 36.5765 27.6094 36.5765 26.1188 35.6906C25.261 35.1796 24.3844 35.9624 24.7407 36.7406C25.0922 37.5046 27.7594 39.2812 30.0703 39.2812C32.3813 39.2812 35.0157 37.5046 35.3672 36.7406C35.7188 35.9624 34.8563 35.1796 33.9985 35.6906Z" fill="#5D4037"/>
<path d="M18.7548 23.7751C20.1564 21.7923 23.3392 21.6048 25.1627 23.0813C25.4533 23.3157 25.8377 23.6438 25.9502 24.0095C26.1377 24.6048 25.5658 25.0688 25.008 24.9282C24.6517 24.8391 24.3189 24.647 23.9673 24.5391C23.3252 24.3376 22.8611 24.2813 22.2845 24.2813C21.4314 24.2766 20.883 24.3845 20.072 24.7126C19.7392 24.8485 19.4673 25.0641 19.0877 24.9048C18.6517 24.7266 18.4877 24.1688 18.7548 23.7751ZM40.3455 24.9048C40.2095 24.8438 40.0783 24.7688 39.9423 24.7126C39.108 24.3657 38.6345 24.2766 37.7298 24.2813C36.933 24.286 36.4595 24.3938 35.8361 24.6048C35.4564 24.736 34.9736 25.0641 34.5517 24.9376C33.933 24.7501 33.9517 24.0751 34.2892 23.6438C34.6923 23.1376 35.2455 22.7532 35.8314 22.5001C37.1908 21.9095 38.8502 21.9938 40.1298 22.7579C40.547 23.0063 41.0017 23.3485 41.2548 23.7798C41.6205 24.3891 41.0673 25.2001 40.3455 24.9048Z" fill="#613E31"/>
<path d="M30 1.88916H29.9812C8.68591 2.00166 13.05 26.3298 13.05 26.3298C13.05 26.3298 14.0062 28.8376 14.4422 29.9438C14.5031 30.1032 14.7375 30.0845 14.775 29.9204C15.2297 27.886 16.8656 20.672 17.6906 18.4782C17.9263 17.8532 18.3742 17.3309 18.9561 17.0027C19.5379 16.6745 20.2166 16.5613 20.8734 16.6829C22.9593 17.0626 26.2875 17.5313 29.9531 17.5313H30.0281C33.6937 17.5313 37.0218 17.0626 39.1078 16.6829C40.4672 16.4345 41.8078 17.1892 42.2906 18.4782C43.1109 20.6626 44.7375 27.8345 45.1968 29.897C45.2343 30.0657 45.4687 30.0798 45.5297 29.9204L46.9265 26.3251C46.9359 26.3298 51.3 2.00166 30 1.88916Z" fill="#543930"/>
<path d="M46.936 26.3298C46.936 26.3298 51.3001 2.00166 30.0001 1.88916H29.9813C29.6485 1.88916 29.3251 1.89854 29.0063 1.9126C28.3735 1.94072 27.7595 1.9876 27.1688 2.05791H27.1501C27.1079 2.0626 27.0704 2.07197 27.0282 2.07666C9.10321 4.33135 13.0501 26.3298 13.0501 26.3298L14.447 29.9298C14.5079 30.0892 14.7376 30.0751 14.7751 29.9063C15.2345 27.8485 16.8657 20.6673 17.6907 18.4829C17.9264 17.8579 18.3743 17.3356 18.9562 17.0074C19.538 16.6792 20.2167 16.566 20.8735 16.6876C22.9595 17.0673 26.2876 17.536 29.9532 17.536H30.0282C33.6938 17.536 37.022 17.0673 39.1079 16.6876C40.4673 16.4392 41.8079 17.1938 42.2907 18.4829C43.1157 20.6767 44.7516 27.9048 45.2016 29.9298C45.2392 30.0985 45.4688 30.1126 45.5298 29.9532C45.9751 28.847 46.936 26.3298 46.936 26.3298Z" fill="url(#paint11_radial_234_563)"/>
<path d="M44.0299 24.8109C43.9971 24.253 43.9736 24.1968 43.2377 23.9624C42.6611 23.7796 39.5112 23.5218 37.1393 23.653C36.9705 23.6624 36.8065 23.6718 36.6518 23.6859C34.5002 23.8687 31.9174 24.7359 29.9768 24.7827C29.1518 24.8015 25.7533 23.9109 23.3486 23.7234C23.194 23.714 23.0393 23.6999 22.8799 23.6952C20.5033 23.5734 17.3393 23.8499 16.7627 24.0374C16.0268 24.2765 16.0033 24.3327 15.9752 24.8905C15.9424 25.4437 16.0361 25.9218 16.4721 26.0671C17.0674 26.264 17.0721 27.0046 17.4705 29.1327C17.8315 31.0734 18.6986 32.6062 22.4252 32.8734C22.5846 32.8827 22.7346 32.8921 22.8846 32.8921C26.1799 32.939 27.3143 30.7687 27.6893 30.0468C28.3877 28.7062 28.1674 26.8593 30.0143 26.8546C31.8565 26.8499 31.683 28.664 32.3908 29.9999C32.7705 30.7171 33.8768 32.8968 37.144 32.8499C37.3033 32.8499 37.4674 32.8405 37.6362 32.8265C41.358 32.5359 42.2205 30.9984 42.5674 29.0577C42.9518 26.9249 42.9565 26.1796 43.5471 25.9827C43.9736 25.8421 44.0627 25.3687 44.0299 24.8109ZM25.0174 31.9546C24.4455 32.2218 23.6815 32.3577 22.8752 32.3577C21.1924 32.353 19.3268 31.7624 18.6518 30.5718C17.6955 28.8749 17.4471 25.4437 18.6658 24.7265C19.2002 24.4124 21.0049 24.1968 22.8705 24.2765C24.8065 24.3609 26.808 24.764 27.5299 25.7109C28.7299 27.2718 26.8268 31.1015 25.0174 31.9546ZM41.3768 30.5015C40.7065 31.7015 38.8268 32.3062 37.1346 32.3109C36.3377 32.3155 35.583 32.1843 35.0205 31.9218C33.2065 31.078 31.2846 27.2624 32.4658 25.6921C33.183 24.7359 35.194 24.3234 37.1346 24.2296C38.9955 24.1405 40.7955 24.3468 41.3252 24.6562C42.5533 25.3687 42.3236 28.7999 41.3768 30.5015Z" fill="#212121" stroke="#212121" stroke-width="0.06875" stroke-miterlimit="10"/>
<defs>
<linearGradient id="paint0_linear_234_563" x1="29.9997" y1="5.34141" x2="29.9997" y2="41.4792" gradientUnits="userSpaceOnUse">
<stop stop-color="#26A69A"/>
<stop offset="1" stop-color="#00796B"/>
</linearGradient>
<linearGradient id="paint1_linear_234_563" x1="29.9995" y1="4.00547" x2="29.9995" y2="42.5512" gradientUnits="userSpaceOnUse">
<stop stop-color="#8D6E63"/>
<stop offset="0.779" stop-color="#795548"/>
</linearGradient>
<linearGradient id="paint2_linear_234_563" x1="30" y1="45.0356" x2="30" y2="57.5939" gradientUnits="userSpaceOnUse">
<stop stop-color="#E1F5FE"/>
<stop offset="1" stop-color="#81D4FA"/>
</linearGradient>
<linearGradient id="paint3_linear_234_563" x1="29.8128" y1="45.375" x2="29.8128" y2="57.7369" gradientUnits="userSpaceOnUse">
<stop stop-color="#00BFA5"/>
<stop offset="1" stop-color="#00AB94"/>
</linearGradient>
<linearGradient id="paint4_linear_234_563" x1="15.2016" y1="44.6443" x2="15.2016" y2="57.6788" gradientUnits="userSpaceOnUse">
<stop stop-color="#B2DFDB" stop-opacity="0.2"/>
<stop offset="0.767" stop-color="#B2DFDB" stop-opacity="0.6"/>
</linearGradient>
<linearGradient id="paint5_linear_234_563" x1="44.711" y1="44.5646" x2="44.711" y2="57.6774" gradientUnits="userSpaceOnUse">
<stop stop-color="#B2DFDB" stop-opacity="0.2"/>
<stop offset="0.767" stop-color="#B2DFDB" stop-opacity="0.6"/>
</linearGradient>
<linearGradient id="paint6_linear_234_563" x1="30.0256" y1="54.2359" x2="30.0256" y2="43.5076" gradientUnits="userSpaceOnUse">
<stop stop-color="#E1F5FE"/>
<stop offset="1" stop-color="#81D4FA"/>
</linearGradient>
<linearGradient id="paint7_linear_234_563" x1="37.1013" y1="50.1014" x2="34.1327" y2="62.6016" gradientUnits="userSpaceOnUse">
<stop offset="0.002" stop-color="#212121" stop-opacity="0.2"/>
<stop offset="1" stop-color="#212121" stop-opacity="0.6"/>
</linearGradient>
<linearGradient id="paint8_linear_234_563" x1="38.3852" y1="51.91" x2="35.9636" y2="60.0348" gradientUnits="userSpaceOnUse">
<stop stop-color="#EF5350"/>
<stop offset="1" stop-color="#E53935"/>
</linearGradient>
<linearGradient id="paint9_linear_234_563" x1="28.558" y1="48.055" x2="48.1325" y2="53.6723" gradientUnits="userSpaceOnUse">
<stop offset="0.01" stop-color="#BDBDBD"/>
<stop offset="0.987" stop-color="#F5F5F5"/>
</linearGradient>
<linearGradient id="paint10_linear_234_563" x1="24.6349" y1="57.2091" x2="26.6856" y2="50.7638" gradientUnits="userSpaceOnUse">
<stop stop-color="#212121"/>
<stop offset="1" stop-color="#424242"/>
</linearGradient>
<radialGradient id="paint11_radial_234_563" cx="0" cy="0" r="1" gradientUnits="userSpaceOnUse" gradientTransform="translate(29.9921 22.077) scale(17.8561 20.1452)">
<stop offset="0.794" stop-color="#6D4C41" stop-opacity="0"/>
<stop offset="1" stop-color="#6D4C41"/>
</radialGradient>
</defs>
</svg>
