<svg width="702" height="411" viewBox="0 0 702 411" fill="none" xmlns="http://www.w3.org/2000/svg">
<path d="M323.415 406.399C323.415 406.399 318.391 399.742 318.391 384.745C318.391 369.748 326.186 363.099 326.186 363.099C317.733 384.49 335.164 406.412 335.164 406.412C335.69 405.593 340.714 399.407 341.24 388.416C341.24 388.416 345.992 397.85 342.014 406.412" stroke="#CCDDE2" stroke-width="3.65" stroke-linejoin="round"/>
<path d="M434.004 406.398C434.004 406.398 437.1 402.305 437.1 393.086C437.1 383.866 432.27 379.766 432.27 379.766C437.471 392.918 426.751 406.398 426.751 406.398C426.426 405.895 423.338 402.091 423.013 395.334C423.013 395.334 420.095 401.131 422.533 406.398" stroke="#CCDDE2" stroke-width="3.65" stroke-linejoin="round"/>
<path d="M580.994 309.674L611.497 335.025V162.262" stroke="#CCDDE2" stroke-width="3.65" stroke-miterlimit="10"/>
<path d="M611.497 310.52L648.433 282.385" stroke="#CCDDE2" stroke-width="3.65" stroke-miterlimit="10"/>
<path d="M611.497 240.441L586.319 216.003" stroke="#CCDDE2" stroke-width="3.65" stroke-miterlimit="10"/>
<path d="M611.497 218.451L629.965 208.808" stroke="#CCDDE2" stroke-width="3.65" stroke-miterlimit="10"/>
<path d="M611.497 172.28C611.497 169.348 598.912 148.654 598.912 148.654" stroke="#CCDDE2" stroke-width="3.65" stroke-miterlimit="10"/>
<path d="M574.686 198.991C580.7 195.368 585.855 191.087 588.007 183.411C591.644 170.427 587.062 156.463 588.138 143.251C588.912 134.347 593.115 123.121 599.748 116.257C608.262 107.42 619.098 113.834 624.71 122.168C634.284 136.299 629.988 153.652 629.934 169.178C629.934 181.183 634.129 191.536 645.344 198.87C655.406 205.466 667.14 211.412 671.32 222.416C675.863 234.42 653.348 231.287 646.939 236.125C635.391 244.848 659.037 265.064 665.631 270.842C682.133 285.342 714.006 311.585 691.56 335.459C677.52 350.422 663.696 347.155 648.417 347.691L640.205 347.597C637.989 347.571 635.789 347.926 633.733 348.643C631.676 349.36 629.806 350.424 628.227 351.773C626.65 353.122 625.397 354.729 624.542 356.502C623.686 358.274 623.247 360.177 623.247 362.098L622.891 408.464" stroke="#CCDDE2" stroke-width="3.65" stroke-miterlimit="10"/>
<path d="M552.24 215.212C550.6 217.458 549.3 219.878 548.37 222.412C546.598 227.109 548.61 229.39 552.24 230.759C565.615 235.858 600.863 227.887 544.399 279.688C543.099 280.869 541.892 282.01 540.723 283.151C539.949 283.869 539.26 284.573 538.54 285.278" stroke="#CCDDE2" stroke-width="3.65" stroke-miterlimit="10"/>
<path d="M46.8954 405.554C43.6059 404.984 40.3706 404.3 37.2281 403.501C24.2869 400.22 9.24029 394.624 4.10093 382.861C2.80758 379.817 2.39929 376.545 2.9123 373.332C3.42531 370.119 4.84374 367.066 7.04213 364.442C9.36421 361.637 12.6341 359.527 16.3998 358.403C24.581 356.155 33.66 359.745 39.7049 365.012C45.7499 370.28 49.6818 377.09 54.4109 383.324C50.1152 374.97 45.7499 366.388 45.1229 357.256C44.6585 350.143 46.8954 342.427 52.5533 337.085C57.7623 332.16 69.9374 328.309 77.1123 331.925C81.8492 334.314 83.73 339.38 84.5505 344.077C86.7719 356.913 83.9158 369.951 81.0675 382.693C82.9793 375.883 85.0304 369.005 88.9313 362.859C92.8323 356.712 98.7998 351.284 106.455 349.009C111.811 347.419 118.181 347.587 122.67 350.586C126.857 353.384 128.73 358.108 129.303 362.664C130.263 370.3 128.189 378.05 124.659 385.082C111.37 411.338 74.4498 410.345 46.8954 405.554Z" stroke="#CCDDE2" stroke-width="3.65" stroke-miterlimit="10"/>
<path d="M76.9266 392.562C76.9266 392.562 97.4453 397.501 104.69 372.781" stroke="#CCDDE2" stroke-width="3.65" stroke-miterlimit="10"/>
<path d="M67.7934 350.35C62.089 361.562 67.7934 395.193 67.7934 395.193" stroke="#CCDDE2" stroke-width="3.65" stroke-miterlimit="10"/>
<path d="M48.7762 391.798C47.9248 391.671 39.6972 390.671 32.677 387.88C27.259 385.712 22.5376 382.471 22.5376 377.727" stroke="#CCDDE2" stroke-width="3.65" stroke-miterlimit="10"/>
<path d="M34.3256 377.727C34.3256 377.727 26.2992 385.833 32.677 387.88" stroke="#CCDDE2" stroke-width="3.65" stroke-miterlimit="10"/>
<path d="M29.016 395.259C30.1538 393.917 36.0981 396.642 39.9758 390.146" stroke="#CCDDE2" stroke-width="3.65" stroke-miterlimit="10"/>
<path d="M65.2624 365.191C63.2345 363.849 57.9094 365.191 57.1432 354.643" stroke="#CCDDE2" stroke-width="3.65" stroke-miterlimit="10"/>
<path d="M66.168 375.088C66.168 375.088 75.0458 372.31 75.0458 366.278" stroke="#CCDDE2" stroke-width="3.65" stroke-miterlimit="10"/>
<path d="M85.2239 392.704C85.2239 392.704 89.8679 382.344 91.7564 377.727" stroke="#CCDDE2" stroke-width="3.65" stroke-miterlimit="10"/>
<path d="M99.6048 382.799C99.6048 382.799 104.69 386.295 110.774 380.692" stroke="#CCDDE2" stroke-width="3.65" stroke-miterlimit="10"/>
<path d="M99.6048 377.725C99.6048 377.725 96.354 376.517 97.8401 369.358" stroke="#CCDDE2" stroke-width="3.65" stroke-miterlimit="10"/>
<path d="M295.465 305.593V343.088H159.505C163.57 329.101 172.905 316.689 186.03 307.823C199.156 298.957 215.319 294.143 231.959 294.146H282.269C285.77 294.148 289.126 295.355 291.601 297.501C294.075 299.648 295.465 302.558 295.465 305.593Z" fill="#EAAD1D"/>
<path d="M328.778 238.662C328.778 238.662 330.876 238.232 331.573 244.701C332.269 251.169 337.765 265.502 328.778 265.2C319.792 264.898 211.68 265.032 211.68 265.032C211.68 265.032 195.008 269.192 192.988 257.759C190.968 246.325 191.866 231.422 209.428 226.537C209.428 226.537 234.025 236.542 259.939 237.555C285.852 238.569 328.778 238.662 328.778 238.662Z" fill="#2E2E2E"/>
<path d="M538.308 295.328C538.308 295.328 532.526 291.866 518.795 296.389C505.065 300.911 479.229 306.514 465.947 342.822H295.52V305.313C295.517 302.277 294.125 299.365 291.647 297.218C289.17 295.071 285.811 293.866 282.307 293.866H223.066C207.777 293.86 192.855 297.922 180.314 305.503C167.773 313.085 158.219 323.82 152.941 336.259H151.022V327.248C151.114 326.302 151.246 325.369 151.378 324.457C156.169 292.759 188.135 269.435 225.001 269.435H319.785V307.225C319.785 310.818 321.217 314.302 323.84 317.084C326.461 319.868 330.112 321.779 334.173 322.497C335.341 322.692 336.529 322.788 337.718 322.786H397.548C411.853 322.82 425.925 319.641 438.392 313.56C465.482 300.314 493.648 273.595 494.322 214.345V195.557L495.003 195.168C495.003 195.168 498.184 182.949 512.959 185.707C514.97 186.815 516.768 188.187 518.292 189.773C521.056 192.686 523.416 197.014 520.885 202.335C520.885 202.335 515.785 210.715 504.159 209.394C503.941 210.026 503.79 210.676 503.71 211.333C503.613 212.143 503.613 212.958 503.71 213.768C504.12 216.627 506.195 219.807 513.463 219.727H513.896C527.557 219.371 537.975 209.098 538.184 199.268C538.354 191.082 533.455 181.822 519.778 174.099C519.758 174.103 519.737 174.103 519.716 174.099C518.124 173.18 516.478 172.331 514.786 171.556C513.393 170.885 511.938 170.261 510.398 169.643C507.778 169.196 505.279 168.326 503.029 167.08H546.737C548.075 167.08 549.359 167.541 550.305 168.362C551.252 169.182 551.783 170.295 551.783 171.455V230.168C551.784 230.743 551.655 231.312 551.402 231.844C551.148 232.375 550.776 232.858 550.308 233.266C549.839 233.672 549.283 233.996 548.67 234.216C548.057 234.436 547.4 234.549 546.737 234.549C545.572 234.543 544.417 234.737 543.34 235.121C542.262 235.505 541.283 236.07 540.46 236.784C539.636 237.498 538.984 238.346 538.542 239.28C538.099 240.215 537.875 241.216 537.882 242.226V273.092C537.864 278.182 539.713 283.145 543.164 287.264C546.615 291.382 551.488 294.441 557.077 295.999C557.364 296.08 557.642 296.16 557.929 296.228C570.631 299.293 582.171 305.218 591.375 313.403C600.58 321.586 607.122 331.736 610.336 342.822H476.674C477.82 339.104 491.14 299.422 538.308 295.328Z" fill="#EAAD1D"/>
<path d="M236.193 234.811C229.669 233.694 223.277 232.059 217.098 229.926L236.193 234.811Z" fill="#2E2E2E"/>
<path d="M176.943 192.396C165.735 190.436 151.339 188.625 144.559 179.593C143.599 178.332 142.391 176.829 142.128 175.312C142.092 175.135 142.074 174.955 142.074 174.775C141.958 171.749 146.122 171.944 148.792 172.306C155.162 173.158 161.455 174.366 167.709 175.661C169.577 176.037 171.43 176.424 173.266 176.822C173.78 182.121 175.013 187.349 176.943 192.396Z" fill="black"/>
<path d="M491.535 188.229C486.527 199.959 476.349 200.006 476.187 200.006C454.461 195.47 451.519 194.96 435.041 189.551C384.421 172.931 356.217 153.15 341.201 136.898C327.958 148.493 324.227 154.129 319.916 166.18C319.66 166.928 319.35 167.661 318.987 168.375C318.987 168.375 318.987 168.455 318.933 168.489L318.051 170.106C318.044 170.129 318.031 170.149 318.012 170.166C315.295 174.675 307.137 180.721 301.944 182.855L206.974 182.251L167.717 175.655C161.455 174.367 155.17 173.159 148.8 172.3C146.896 172.038 144.218 171.877 142.902 172.904C142.602 173.134 142.37 173.424 142.225 173.749C142.081 174.073 142.029 174.423 142.074 174.769C142.074 170.83 144.435 168.133 147.183 165.281C150.101 162.208 153.042 159.135 155.96 156.082C172.369 139.112 188.383 121.861 204.83 104.932C208.878 100.765 213.004 96.6849 217.415 92.8133C232.841 79.2255 250.697 67.3153 270.241 58.4648C301.905 44.206 326.472 39.0058 346.402 40.1599H346.65C348.33 40.274 349.963 40.4216 351.588 40.6027L352.269 40.6833C367.548 42.5621 380.017 48.326 390.969 56.5122C392.275 57.8219 393.441 59.2324 394.452 60.726C398.934 67.3085 402.007 74.3473 405.149 81.4465C420.227 115.668 447.719 145.977 487.363 160.43L487.495 163.013V163.845C487.495 163.651 487.495 163.389 487.495 163.013C487.495 162.409 487.441 161.571 487.387 160.43C487.387 160.316 487.387 160.202 487.387 160.088L490.312 161.43L493.478 162.919C493.47 162.968 493.47 163.018 493.478 163.067C494.345 173.924 493.834 182.828 491.535 188.229Z" fill="#2E2E2E"/>
<path d="M66.1448 407.096H574.748" stroke="black" stroke-width="3.65" stroke-miterlimit="10"/>
<path d="M320.195 167.348H354.661C379.321 167.348 394.135 187.934 391.093 208.95L375.884 305.078H338.059L330.876 238.501" stroke="black" stroke-width="3.65" stroke-miterlimit="10"/>
<path d="M329.266 99.8386C329.266 99.8386 312.47 165.711 476.837 200.046C476.837 200.046 497.851 200.562 493.455 163" stroke="black" stroke-width="3.65" stroke-miterlimit="10"/>
<path d="M339.313 238.661H300.373C243.236 238.661 199.938 235.253 181.068 200.005C177.145 192.695 174.727 184.847 173.924 176.815" stroke="black" stroke-width="3.65" stroke-miterlimit="10"/>
<path d="M492.193 186.987C502.348 187.055 497.549 186.464 507.456 188.819C512.936 190.161 517.689 192.543 517.704 198.488C517.704 206.232 498.509 206.93 504.306 215.666C510.498 225.013 530.104 216.129 533.981 210.083C551.242 183.116 512.696 170.233 489.523 161.214" stroke="black" stroke-width="3.65" stroke-miterlimit="10"/>
<path d="M177.624 192.397C166.416 190.438 152.028 188.626 145.24 179.594C144.28 178.333 143.073 176.83 142.809 175.313C142.175 171.737 146.679 171.958 149.481 172.307C168.266 174.79 186.293 180.507 205.209 181.99C210.48 182.399 215.798 182.6 221.092 182.6H295.164C300.871 182.581 306.421 180.976 310.999 178.021C315.576 175.066 318.94 170.916 320.597 166.181C324.251 155.962 330.489 145.018 341.108 136.657" stroke="black" stroke-width="3.65" stroke-miterlimit="10"/>
<path d="M414.839 42.8568C414.065 42.8568 371.968 39.0119 352.223 40.6156" stroke="black" stroke-width="3.65" stroke-miterlimit="10"/>
<path d="M508.393 209.405C515.938 209.405 522.054 204.103 522.054 197.562C522.054 191.022 515.938 185.719 508.393 185.719C500.848 185.719 494.732 191.022 494.732 197.562C494.732 204.103 500.848 209.405 508.393 209.405Z" fill="#004181"/>
<path d="M508.393 209.405C515.938 209.405 522.054 204.103 522.054 197.562C522.054 191.022 515.938 185.719 508.393 185.719C500.848 185.719 494.732 191.022 494.732 197.562C494.732 204.103 500.848 209.405 508.393 209.405Z" stroke="black" stroke-width="3.65" stroke-miterlimit="10"/>
<path d="M508.393 209.405C515.938 209.405 522.054 204.103 522.054 197.562C522.054 191.022 515.938 185.719 508.393 185.719C500.848 185.719 494.732 191.022 494.732 197.562C494.732 204.103 500.848 209.405 508.393 209.405Z" stroke="black" stroke-width="3.65" stroke-miterlimit="10"/>
<path d="M402.734 40.5438C403.885 43.1184 405.321 45.5904 407.022 47.9248C407.2 48.1798 408.462 47.6966 409.507 48.9917C411.651 51.6354 415.699 51.9374 416.759 50.8504L416.658 50.79L415.513 50.1861L418.098 50.7027L419.793 50.7564L422.293 48.6428C422.293 48.6428 410.389 40.8927 416.357 35.4979C416.357 35.4979 416.357 35.4979 416.403 35.4576C416.533 35.3402 416.65 35.212 416.751 35.0751C417.045 34.6725 416.689 34.6927 417.254 34.6189C417.679 34.2639 418.188 33.9948 418.746 33.8318C419.304 33.6681 419.897 33.6137 420.482 33.6727C421.142 33.6949 421.777 33.8989 422.293 34.2565C422.371 30.3312 421.96 25.9294 424.731 24.1915C425.846 22.1785 427.688 20.8365 430.629 20.9372C431.481 20.9707 432.255 21.0244 432.99 21.1116L440.954 22.7757C442.634 20.7627 443.88 22.4872 446.225 23.1582C447.03 23.3917 447.888 23.4514 448.725 23.3326C449.86 23.1642 450.906 22.6952 451.721 21.9906C453.222 18.8504 453.493 14.9183 452.177 12.5564C452.177 12.5564 444.863 12.3215 439.793 11.154C434.724 9.98645 432.905 2.06194 418.369 10.067C417.61 10.4817 416.762 10.7601 415.877 10.8856C414.329 11.0668 411.875 11.1473 410.126 10.2951C409.996 10.2367 409.872 10.1696 409.754 10.0938C409.563 9.99919 409.389 9.88177 409.236 9.74489C409.669 10.1139 408.315 13.5696 407.618 15.2874C407.613 15.3068 407.613 15.3276 407.618 15.3477C407.533 15.5826 407.432 15.7772 407.37 15.9315V15.9785C407.341 16.051 407.308 16.1228 407.27 16.1932C406.579 17.5178 405.684 18.7551 404.607 19.8703L404.081 20.4809C403.375 21.2754 402.764 22.1295 402.254 23.0307C399.251 28.4456 400.141 34.7195 402.734 40.5438Z" fill="#004181"/>
<path d="M416.72 50.8758C419.352 51.1107 421.821 50.7215 422.309 48.6414L422.394 48.2857C422.394 48.2857 411.039 41.5019 416.372 35.4965C416.372 35.4965 416.372 35.4965 416.419 35.4562C416.465 35.416 416.573 35.2684 416.651 35.1878C416.728 35.1073 416.736 35.1073 416.767 35.0738C416.953 34.8993 417.092 34.7584 417.27 34.6175C418.562 33.517 419.592 33.3292 420.497 33.6714C420.723 33.7579 420.931 33.878 421.109 34.027C422.533 35.0805 423.346 37.5632 423.787 39.395C423.199 35.7582 422.378 28.4242 424.747 24.1902C425.861 22.1772 427.703 20.8351 430.645 20.9358L433.005 21.1102L440.97 22.7743L446.241 23.1568L448.741 23.3313C449.875 23.1629 450.922 22.6938 451.736 21.9893C455.529 18.896 456.93 11.3673 454.77 7.77748C454.77 7.77748 447.177 7.95194 441.86 7.01924C436.543 6.08655 434.251 -2.6096 418.501 7.81774C415.962 9.15974 413.005 10.2669 410.141 9.08594C410.176 9.48787 410.176 9.8918 410.141 10.2937C410.048 10.9795 409.821 11.6471 409.468 12.2665C408.895 13.2864 408.291 14.2795 407.634 15.286C407.629 15.3054 407.629 15.3262 407.634 15.3464C407.007 16.3059 406.333 17.2654 405.691 18.2182C405.312 18.7819 404.917 19.3254 404.607 19.8689C403.287 21.8269 402.321 23.9499 401.743 26.1629C401.146 28.7295 400.986 31.3591 401.271 33.9666C401.507 36.2078 402.026 38.4194 402.819 40.5626C404.251 44.5886 405.644 47.7959 410.49 49.4801C412.49 50.1726 414.583 50.6416 416.72 50.8758Z" stroke="black" stroke-width="3.65" stroke-miterlimit="10"/>
<path d="M446.574 29.2219C446.574 29.2219 438.903 29.0609 436.906 34.5899" stroke="black" stroke-width="3.65" stroke-miterlimit="10"/>
<path d="M449.375 23.452L449.538 35.7448C449.56 36.1192 449.718 36.4782 449.987 36.7714C451.628 38.9857 453.129 41.2872 454.584 43.6088C454.763 43.892 454.858 44.2087 454.863 44.5308C454.868 44.8536 454.782 45.1723 454.611 45.4588C454.44 45.746 454.192 45.9916 453.886 46.1761C453.581 46.36 453.228 46.476 452.858 46.5143C451.163 46.6324 449.455 46.4848 447.82 46.0781" stroke="black" stroke-width="3.65" stroke-miterlimit="10"/>
<path d="M444.471 36.8479C445.574 36.7647 446.376 35.787 446.263 34.6644C446.15 33.5425 445.164 32.7004 444.061 32.7836C442.958 32.8675 442.156 33.8452 442.269 34.9677C442.382 36.0896 443.368 36.9318 444.471 36.8479Z" fill="black"/>
<path d="M450.072 47.3591C448.091 54.1698 440.877 66.3015 430.722 64.3623C425.954 63.4497 422.696 59.1956 419.545 56.2767" stroke="black" stroke-width="3.65" stroke-linecap="round" stroke-linejoin="round"/>
<path d="M552.24 176.797C563.749 181.91 571.59 192.009 571.59 203.637C571.59 215.628 563.285 225.981 551.211 230.933L552.24 176.797Z" fill="#004181"/>
<path d="M383.508 305.078H337.919V323.047H396.163V316.056C396.163 313.146 394.83 310.354 392.457 308.296C390.084 306.238 386.865 305.08 383.508 305.078Z" stroke="black" stroke-width="3.65" stroke-miterlimit="10"/>
<path d="M425.83 62.0822C415.977 63.9475 402.409 75.3344 402.409 75.3344" stroke="black" stroke-width="3.65" stroke-miterlimit="10"/>
<path d="M446.574 55.0031C446.574 55.0031 442.115 56.0298 440.25 50.9369" stroke="black" stroke-width="3.65" stroke-miterlimit="10"/>
<path d="M207.392 225.544C207.392 225.544 178.359 242.674 199.652 266.81" stroke="black" stroke-width="3.65" stroke-miterlimit="10"/>
<path d="M153.328 336.561H142.02V323.048C142.128 322.101 142.244 321.175 142.384 320.256C147.159 288.558 179.133 265.234 216.007 265.234H320.195V307.507C320.194 309.549 320.657 311.571 321.558 313.459C322.459 315.346 323.779 317.06 325.445 318.505C327.11 319.949 329.087 321.095 331.264 321.877C333.44 322.658 335.772 323.061 338.128 323.061H397.959C412.267 323.093 426.341 319.919 438.818 313.848C465.862 300.576 494.058 273.857 494.732 214.614V197.564" stroke="black" stroke-width="3.65" stroke-miterlimit="10"/>
<path d="M142.717 174.755C142.71 174.136 142.773 173.518 142.902 172.91C143.467 169.937 145.518 167.683 147.802 165.287C150.743 162.214 153.661 159.141 156.602 156.088C173.003 139.118 189.017 121.867 205.465 104.938C209.497 100.771 213.646 96.691 218.05 92.8193C233.484 79.2316 251.332 67.3213 270.876 58.4708C287.718 50.8952 305.613 44.2792 324.398 41.4073C331.645 40.2579 339.022 39.8419 346.379 40.166H346.627C353.966 40.5055 361.202 41.818 368.082 44.0577C376.712 46.8961 385.025 50.5195 390.977 56.5182C392.283 57.8287 393.449 59.2391 394.46 60.7321C398.942 67.3146 402.014 74.3534 405.157 81.4526C420.234 115.674 447.727 145.983 487.371 160.436C488.068 160.711 488.764 160.959 489.476 161.201C489.739 161.302 490.01 161.382 490.25 161.463C490.924 161.711 491.62 161.926 492.34 162.134" stroke="black" stroke-width="3.65" stroke-miterlimit="10"/>
<path d="M552.24 171.542C558.913 173.93 564.618 177.981 568.632 183.183C572.646 188.385 574.789 194.502 574.789 200.76C574.789 207.018 572.646 213.136 568.632 218.337C564.618 223.539 558.913 227.59 552.24 229.978" stroke="black" stroke-width="3.65" stroke-miterlimit="10"/>
<path d="M295.93 343.088H151.022C155.087 329.101 164.422 316.689 177.547 307.823C190.673 298.957 206.836 294.143 223.476 294.146H282.725C286.228 294.146 289.586 295.352 292.062 297.499C294.539 299.645 295.93 302.557 295.93 305.593V343.088Z" stroke="black" stroke-width="3.65" stroke-miterlimit="10"/>
<path d="M151.022 343.09H295.93H465.838" stroke="black" stroke-width="3.65" stroke-miterlimit="10"/>
<path d="M505.103 167.343H547.147C548.488 167.343 549.773 167.804 550.721 168.626C551.669 169.448 552.201 170.562 552.201 171.724V230.437C552.201 231.012 552.07 231.581 551.817 232.112C551.562 232.644 551.19 233.126 550.721 233.533C550.251 233.939 549.694 234.261 549.081 234.48C548.468 234.7 547.81 234.812 547.147 234.812C544.801 234.815 542.553 235.626 540.896 237.064C539.239 238.504 538.308 240.454 538.308 242.488V273.354C538.278 278.582 540.221 283.677 543.84 287.86C547.458 292.043 552.556 295.085 558.355 296.524C571.051 299.598 582.584 305.526 591.788 313.707C600.993 321.888 607.541 332.032 610.77 343.111H465.838C469.901 329.117 479.237 316.701 492.366 307.831C505.494 298.961 521.663 294.145 538.308 294.148" stroke="black" stroke-width="3.65" stroke-miterlimit="10"/>
<path d="M277.052 343.09C279.715 350.389 280.356 358.129 278.924 365.683C277.492 373.237 274.026 380.392 268.807 386.568C263.588 392.744 256.765 397.766 248.889 401.228C241.013 404.691 232.306 406.495 223.476 406.495C214.645 406.495 205.939 404.691 198.063 401.228C190.187 397.766 183.363 392.744 178.145 386.568C172.927 380.392 169.461 373.237 168.028 365.683C166.595 358.129 167.236 350.389 169.9 343.09" stroke="black" stroke-width="3.65" stroke-miterlimit="10"/>
<path d="M591.877 343.09C594.542 350.39 595.185 358.132 593.753 365.688C592.322 373.244 588.856 380.402 583.637 386.579C578.418 392.757 571.593 397.781 563.715 401.245C555.838 404.708 547.129 406.513 538.296 406.513C529.463 406.513 520.755 404.708 512.877 401.245C505 397.781 498.175 392.757 492.955 386.579C487.736 380.402 484.27 373.244 482.839 365.688C481.407 358.132 482.051 350.39 484.716 343.09" stroke="black" stroke-width="3.65" stroke-miterlimit="10"/>
<path d="M538.293 365.999C543.508 365.999 547.735 362.334 547.735 357.813C547.735 353.291 543.508 349.626 538.293 349.626C533.077 349.626 528.85 353.291 528.85 357.813C528.85 362.334 533.077 365.999 538.293 365.999Z" fill="black"/>
<path d="M223.476 365.999C228.691 365.999 232.919 362.334 232.919 357.813C232.919 353.291 228.691 349.626 223.476 349.626C218.261 349.626 214.033 353.291 214.033 357.813C214.033 362.334 218.261 365.999 223.476 365.999Z" fill="black"/>
<path d="M320.195 265.227H333.585" stroke="black" stroke-width="3.65" stroke-miterlimit="10"/>
<path d="M476.674 342.814C476.62 342.996 476.597 343.09 476.597 343.09H465.838C465.881 343.001 465.912 342.908 465.931 342.814H476.674Z" fill="#D7E8F0"/>
<path d="M180.96 402.52C177.304 399.903 173.975 396.959 171.03 393.737" stroke="black" stroke-width="3.65" stroke-miterlimit="10"/>
<path d="M290.303 357.804C290.328 368.969 286.609 379.901 279.599 389.267" stroke="black" stroke-width="3.65" stroke-miterlimit="10"/>
<path d="M475.405 375.177C474.078 371.239 473.238 367.191 472.897 363.099" stroke="black" stroke-width="3.65" stroke-miterlimit="10"/>
<path d="M603.502 357.804C603.527 368.969 599.808 379.901 592.798 389.267" stroke="black" stroke-width="3.65" stroke-miterlimit="10"/>
<path d="M163.251 382.973C158.883 375.124 156.624 366.519 156.641 357.804" stroke="black" stroke-width="3.65" stroke-miterlimit="10"/>
<path d="M311.093 35.9052C311.093 35.9052 272.307 40.7766 230.643 71.2669" stroke="black" stroke-width="3.65" stroke-miterlimit="10"/>
</svg>
