<svg width="413" height="364" viewBox="0 0 413 364" fill="none" xmlns="http://www.w3.org/2000/svg">
<path d="M82.4348 114.287C82.4348 114.287 57.7821 41.3413 143.771 50.2443C229.76 59.1473 188.676 26.8602 221.169 6.82382C253.662 -13.2125 349.401 49.1223 309.347 109.245C269.293 169.368 373.358 114.37 395.066 204.783C408.462 260.578 375.227 301.645 347.808 324.923" stroke="#CCDDE2" stroke-width="5.47" stroke-miterlimit="10"/>
<path d="M356.193 255.217C349.731 217.796 326.851 184.309 289.677 172.323C280.168 169.275 270.444 166.94 260.587 165.339V165.39C260.073 168.496 258.855 171.445 257.028 174.009C253.154 179.317 247.814 183.677 241.631 185.948C235.32 188.284 227.503 188.586 221.645 184.913C218.119 182.706 214.698 178.817 214.079 174.622C213.374 169.896 215.783 165.422 219.172 162.298C190.448 162.532 163.427 167.258 141.774 172.639C142.525 175.782 143.564 178.848 144.88 181.799C146.72 185.913 149.321 189.642 152.546 192.79C156.568 188.805 160.09 184.346 163.034 179.509C165.849 180.43 168.332 182.16 170.173 184.481C172.014 186.803 173.132 189.614 173.388 192.566V192.717C174.524 203.438 164.201 211.494 155.527 216.449C145.507 222.21 134.337 226.525 123.364 230.111C118.839 231.594 112.959 232.858 108.182 231.31C107.668 231.146 107.166 230.946 106.68 230.71C101.917 228.375 98.7295 223.479 96.2427 219.005C89.1578 206.296 84.5506 192.442 81.4272 178.222C59.7513 180.993 57.2691 166.315 55.9822 162.715L37.4389 214.553C36.4661 218.279 36.3612 222.179 37.1311 225.952C37.9014 229.725 39.5268 233.272 41.8821 236.319C44.237 239.366 47.2596 241.832 50.7169 243.528C54.1746 245.225 57.9749 246.105 61.826 246.103H138.592L173.462 335.545L183.345 360.931H239.795C235.215 360.931 232.71 359.813 230.892 357.991C229.014 356.112 227.957 353.566 227.951 350.91C227.951 345.415 232.462 340.908 239.795 340.908H240.312C239.758 340.908 239.227 340.858 238.673 340.807C239.016 340.77 239.357 340.713 239.694 340.638C239.331 340.629 238.968 340.602 238.608 340.555C241.915 340.165 244.98 338.625 247.266 336.203C249.553 333.783 250.915 330.635 251.116 327.311C251.125 327.138 251.125 326.966 251.116 326.793V326.528C251.037 323.12 249.734 319.854 247.446 317.328C245.158 314.8 242.037 313.181 238.654 312.766C239.039 312.734 239.405 312.702 239.776 312.702C239.442 312.619 239.071 312.569 238.723 312.518C239.273 312.468 239.827 312.431 240.358 312.431L281.658 312.651L289.256 312.683H298.273C298.69 312.683 299.111 312.683 299.51 312.734L312.906 312.802L321.854 312.853C325.595 312.884 329.17 314.395 331.798 317.056C334.427 319.716 335.895 323.31 335.882 327.05C335.878 329.165 335.387 331.25 334.449 333.145C338.288 332.654 341.849 330.879 344.552 328.108C350.995 321.527 353.771 311.676 355.689 302.919C359.083 287.321 358.882 270.884 356.193 255.217ZM251.848 256.27C244.067 268.246 230.818 267.17 230.818 267.17C230.818 267.17 229.719 268.241 227.155 263.68C224.59 259.119 217.285 256 217.285 256C216.704 260.58 215.499 267.541 203.546 258.519C191.593 249.497 195.197 236.344 196.218 229.396C197.24 222.449 201.311 220.145 201.311 220.145L206.12 217.608C206.12 217.608 192.211 214.031 191.542 213.898C190.874 213.765 178.486 203.392 191.057 200.654C203.628 197.915 223.225 208.806 227.013 210.958C230.8 213.111 252.934 231.832 252.934 231.832C252.934 231.832 259.671 244.312 251.848 256.27Z" fill="#353642"/>
<path d="M81.4093 178.23C81.4093 178.23 91.8923 176.957 95.8171 169.474L92.3961 188.667C92.3961 188.667 134.099 174.47 141.747 172.638C141.747 172.638 144.211 188.525 154.021 192.789L164.142 179.92C164.142 179.92 176.833 183.126 173.361 200.419C169.89 217.712 121.876 232.166 113.733 231.831C105.59 231.497 96.8247 226.487 87.8484 199.563L81.4093 178.23Z" fill="#353642"/>
<path d="M98.487 135.474C101.143 139.797 103.813 144.112 106.57 148.371C108.269 150.995 111.365 154.737 108.072 157.48C107.001 158.301 105.707 158.78 104.358 158.854C102.242 159.041 100.021 158.533 98.7343 156.715L92.3227 146.09C91.0449 143.971 89.0157 142.411 86.6397 141.72C84.2633 141.029 81.7142 141.259 79.4994 142.362" stroke="black" stroke-width="5.47" stroke-miterlimit="10"/>
<path d="M122.736 149.468C124.413 153.453 123.277 156.022 121.317 157.313C118.111 159.416 113.82 158.408 111.548 155.34L98.5096 135.496" stroke="black" stroke-width="5.47" stroke-miterlimit="10"/>
<path d="M109.524 129.704C114.269 135.474 120.254 146.191 123.565 150.665C126.877 155.14 131.997 152.442 131.997 152.442C136.155 150.203 135.45 146.489 133.632 141.978C129.153 130.904 122.759 123.539 115.629 118.712C93.5315 103.764 70.8618 114.792 64.1158 140.594L37.4389 214.553C36.4661 218.279 36.3612 222.179 37.1311 225.952C37.9014 229.725 39.5268 233.272 41.8821 236.319C44.237 239.366 47.2596 241.832 50.7169 243.528C54.1746 245.224 57.9749 246.105 61.826 246.102H138.592L183.358 360.935" stroke="black" stroke-width="5.47" stroke-miterlimit="10"/>
<path d="M136.934 136.898C142.43 134.993 142.178 126.227 134.379 123.269C125.764 119.999 110.468 115.373 106.626 114.219C106.602 114.201 106.573 114.19 106.543 114.187C106.273 114.105 106.085 114.036 105.939 114.004L105.723 113.935" stroke="black" stroke-width="5.47" stroke-miterlimit="10"/>
<path d="M218.133 224.54C213.324 218.76 200.162 215.486 191.57 213.901C190.126 213.63 188.81 212.897 187.818 211.813C186.827 210.728 186.215 209.351 186.074 207.888C185.975 206.902 186.089 205.905 186.409 204.966C186.921 203.525 187.902 202.298 189.195 201.481C190.488 200.664 192.018 200.304 193.539 200.46C208.195 201.944 223.308 206.555 234.487 216.489C234.487 216.489 288.679 257.844 295.15 261.87C297.82 263.491 300.311 261.576 298.502 259.03L297.935 258.059C294.749 252.593 290.979 247.489 286.691 242.836" stroke="black" stroke-width="5.47" stroke-miterlimit="10"/>
<path d="M219.136 162.293C150.98 162.861 92.3965 188.663 92.3965 188.663L98.2448 155.881" stroke="black" stroke-width="5.47" stroke-miterlimit="10"/>
<path d="M324.992 340.705C324.992 340.705 317.568 339.024 315.594 344.969C313.621 350.913 311.56 360.371 325.752 360.929C339.945 361.488 331.61 358.699 330.79 354.105C329.97 349.512 324.992 340.705 324.992 340.705Z" fill="#353642"/>
<path d="M211.584 232.084C211.584 232.084 203.574 226.011 196.361 232.166C196.057 232.434 195.792 232.742 195.573 233.082" stroke="black" stroke-width="5.47" stroke-miterlimit="10"/>
<g opacity="0.77">
<path opacity="0.77" d="M111.522 155.319C113.811 158.392 118.098 159.395 121.29 157.288C123.227 156.006 124.363 153.45 122.728 149.502C123.026 149.937 123.296 150.322 123.562 150.675C126.868 155.167 131.993 152.461 131.993 152.461C136.151 150.221 135.451 146.507 133.633 141.992C131.853 137.519 129.519 133.288 126.685 129.397C128.54 127.662 130.743 125.908 133.065 126.677C135.57 127.51 136.271 130.652 136.554 133.272C136.687 134.49 136.82 135.694 136.953 136.913L138.959 154.847C139.627 160.801 140.296 166.841 141.748 172.653C142.498 175.795 143.538 178.861 144.853 181.812C146.694 185.926 149.294 189.656 152.519 192.804C156.542 188.819 160.064 184.359 163.007 179.522C165.823 180.444 168.306 182.173 170.147 184.495C171.987 186.816 173.106 189.627 173.362 192.579V192.73C174.498 203.452 164.175 211.507 155.501 216.463C145.48 222.224 134.31 226.538 123.337 230.124C118.813 231.608 112.932 232.872 108.155 231.324C107.641 231.16 107.139 230.959 106.653 230.724C101.89 228.388 98.7029 223.493 96.2161 219.018C84.3088 197.608 79.3627 173.024 76.7568 148.678C81.9685 147.959 87.162 147.157 92.2913 146.054C92.2913 146.054 92.2913 146.09 92.3233 146.104L98.2358 155.909L98.7212 156.725C100.004 158.556 102.225 159.046 104.345 158.863C105.693 158.796 106.989 158.317 108.055 157.489C111.343 154.742 108.256 151.014 106.553 148.389" fill="white"/>
<path opacity="0.77" d="M111.522 155.319C113.811 158.392 118.098 159.395 121.29 157.288C123.227 156.006 124.363 153.45 122.728 149.502C123.026 149.937 123.296 150.322 123.562 150.675C126.868 155.167 131.993 152.461 131.993 152.461C136.151 150.221 135.451 146.507 133.633 141.992C131.853 137.519 129.519 133.288 126.685 129.397C128.54 127.662 130.743 125.908 133.065 126.677C135.57 127.51 136.271 130.652 136.554 133.272C136.687 134.49 136.82 135.694 136.953 136.913L138.959 154.847C139.627 160.801 140.296 166.841 141.748 172.653C142.498 175.795 143.538 178.861 144.853 181.812C146.694 185.926 149.294 189.656 152.519 192.804C156.542 188.819 160.064 184.359 163.007 179.522C165.823 180.444 168.306 182.173 170.147 184.495C171.987 186.816 173.106 189.627 173.362 192.579V192.73C174.498 203.452 164.175 211.507 155.501 216.463C145.48 222.224 134.31 226.538 123.337 230.124C118.813 231.608 112.932 232.872 108.155 231.324C107.641 231.16 107.139 230.959 106.653 230.724C101.89 228.388 98.7029 223.493 96.2161 219.018C84.3088 197.608 79.3627 173.024 76.7568 148.678C81.9685 147.959 87.162 147.157 92.2913 146.054C92.2913 146.054 92.2913 146.09 92.3233 146.104L98.2358 155.909L98.7212 156.725C100.004 158.556 102.225 159.046 104.345 158.863C105.693 158.796 106.989 158.317 108.055 157.489C111.343 154.742 108.256 151.014 106.553 148.389" fill="#004181"/>
<path opacity="0.77" d="M112.928 156.77C114.956 159.518 118.423 159.17 121.29 157.288C123.021 156.143 124.441 156.477 122.98 152.946C123.25 153.331 123.287 152.03 123.525 152.319C126.479 156.331 123.562 150.661 123.562 150.661C127.683 155.868 136.655 150.963 135.011 146.938C133.271 142.6 131.439 136.189 129.117 132.983C130.949 131.252 130.596 131.508 132.927 132.887C133.553 133.289 134.078 133.832 134.458 134.471C134.839 135.111 135.066 135.831 135.121 136.574C135.309 138.318 135.496 139.99 135.684 141.694L137.47 157.723C138.07 163.049 138.666 168.43 139.962 173.614C140.632 176.418 141.561 179.153 142.737 181.785C144.377 185.407 149.643 191.439 152.519 194.2C156.096 190.651 160.383 184.125 163.007 179.788C168.045 181.336 167.825 186.154 168.182 191.416V191.553C169.199 201.12 159.984 208.306 152.263 212.735C143.314 217.878 133.344 221.725 123.548 224.93C119.509 226.259 114.26 227.404 109.997 226.002C109.537 225.857 109.088 225.677 108.655 225.466C104.405 223.378 101.556 219.013 99.3349 215.015C89.6121 197.553 85.101 177.727 82.6188 157.851C82.4366 156.364 82.8391 154.864 83.7413 153.668C84.6435 152.472 85.9749 151.672 87.455 151.439C90.2441 150.981 93.024 150.523 95.7856 149.91L95.8634 149.946L101.139 158.698C102.289 160.324 102.477 159.051 104.368 158.886C105.563 158.781 107.881 158.547 108.806 157.773C111.741 155.328 110.084 154.315 108.563 151.975" fill="#004181"/>
</g>
<path d="M210.617 240.923C210.617 240.923 195.408 235.922 195.179 244.33" stroke="black" stroke-width="5.47" stroke-miterlimit="10"/>
<path opacity="0.54" d="M74.4759 326.576L44.6481 250.158C44.2785 248.68 44.251 247.136 44.567 245.645C44.8835 244.154 45.5356 242.755 46.4735 241.554C47.4119 240.352 48.6114 239.381 49.9816 238.712C51.3514 238.044 52.8559 237.697 54.38 237.697H172.858C175.518 237.697 178.101 238.592 180.191 240.239C182.28 241.885 183.754 244.187 184.376 246.774L217.029 323.173C217.383 324.647 217.397 326.182 217.072 327.662C216.746 329.142 216.09 330.529 215.151 331.719C214.213 332.909 213.017 333.871 211.654 334.533C210.29 335.194 208.795 335.538 207.279 335.539H85.9665C83.3258 335.54 80.7607 334.659 78.6787 333.035C76.5968 331.411 75.1175 329.137 74.4759 326.576Z" fill="white"/>
<path d="M215.568 253.813C215.568 253.813 218.037 256.076 217.098 259.309C216.402 261.704 214.02 263.216 211.662 262.396C204.151 259.799 197.387 255.389 195.738 247.892C194.959 244.096 194.791 240.2 195.239 236.351C195.601 232.783 196.127 228.932 197.327 225.538C199.159 220.326 204.769 216.695 210.215 219.204" stroke="black" stroke-width="5.47" stroke-miterlimit="10"/>
<path d="M74.4759 326.576L44.6481 250.158C44.2785 248.68 44.251 247.136 44.567 245.645C44.8835 244.154 45.5356 242.755 46.4735 241.554C47.4119 240.352 48.6114 239.381 49.9816 238.712C51.3514 238.044 52.8559 237.697 54.38 237.697H172.858C175.518 237.697 178.101 238.592 180.191 240.239C182.28 241.885 183.754 244.187 184.376 246.774L217.029 323.173C217.383 324.647 217.397 326.182 217.072 327.662C216.746 329.142 216.09 330.529 215.151 331.719C214.213 332.909 213.017 333.871 211.654 334.533C210.29 335.194 208.795 335.538 207.279 335.539H85.9665C83.3258 335.54 80.7607 334.659 78.6787 333.035C76.5968 331.411 75.1175 329.137 74.4759 326.576Z" fill="#004181"/>
<path d="M74.4759 326.576L44.6481 250.158C44.2785 248.68 44.251 247.136 44.567 245.645C44.8835 244.154 45.5356 242.755 46.4735 241.554C47.4119 240.352 48.6114 239.381 49.9816 238.712C51.3514 238.044 52.8559 237.697 54.38 237.697H172.858C175.518 237.697 178.101 238.592 180.191 240.239C182.28 241.885 183.754 244.187 184.376 246.774L217.029 323.173C217.383 324.647 217.397 326.182 217.072 327.662C216.746 329.142 216.09 330.529 215.151 331.719C214.213 332.909 213.017 333.871 211.654 334.533C210.29 335.194 208.795 335.538 207.279 335.539H85.9665C83.3258 335.54 80.7607 334.659 78.6787 333.035C76.5968 331.411 75.1175 329.137 74.4759 326.576Z" stroke="black" stroke-width="5.47" stroke-linecap="square" stroke-linejoin="round"/>
<path d="M78.8405 323.498L51.3208 252.97C50.9806 251.606 50.9558 250.182 51.248 248.807C51.5402 247.432 52.142 246.141 53.008 245.033C53.8736 243.925 54.9805 243.029 56.244 242.412C57.5081 241.796 58.8957 241.475 60.3017 241.475H169.602C172.056 241.474 174.438 242.3 176.366 243.819C178.294 245.337 179.654 247.461 180.227 249.847L210.357 320.334C210.682 321.694 210.695 323.11 210.394 324.476C210.094 325.841 209.488 327.121 208.622 328.219C207.756 329.317 206.652 330.204 205.394 330.814C204.136 331.425 202.756 331.742 201.358 331.742H89.438C87.0057 331.744 84.6426 330.934 82.7232 329.441C80.8034 327.948 79.4372 325.857 78.8405 323.498Z" fill="#004181"/>
<path d="M312.759 312.435L333.716 360.929" stroke="black" stroke-width="5.47" stroke-miterlimit="10"/>
<path d="M412.176 360.929H0" stroke="black" stroke-width="5.47" stroke-miterlimit="10"/>
<path d="M217.248 142.054C213.85 145.411 208.776 145.407 205.886 142.302" stroke="black" stroke-width="5.47" stroke-miterlimit="10"/>
<path d="M126.685 129.382C128.54 127.646 130.743 125.892 133.064 126.662C135.57 127.495 136.27 130.637 136.554 133.257C137.357 140.456 138.159 147.648 138.959 154.832C139.975 163.992 141.047 173.371 144.853 181.788C146.693 185.902 149.294 189.631 152.519 192.779" stroke="black" stroke-width="5.47" stroke-miterlimit="10"/>
<path d="M173.361 192.725V192.573C173.105 189.622 171.987 186.81 170.146 184.489C168.305 182.168 165.822 180.439 163.007 179.517C160.063 184.353 156.541 188.813 152.519 192.798C141.973 203.284 128.426 210.229 113.756 212.669C114.461 215.477 115.913 218.032 116.916 220.734C117.919 223.436 118.418 226.564 117.2 229.17C115.661 232.495 111.246 232.06 108.178 231.323C108.146 231.323 108.128 231.323 108.095 231.323" stroke="black" stroke-width="5.47" stroke-miterlimit="10"/>
<path d="M92.2999 146.049C87.1706 147.153 81.9772 147.954 76.7654 148.673C79.3713 173.019 84.2991 197.603 96.2247 219.013C98.7115 223.488 101.899 228.383 106.662 230.719C107.148 230.955 107.65 231.155 108.164 231.319C112.941 232.89 118.821 231.603 123.346 230.119C134.337 226.529 145.489 222.219 155.509 216.458C164.161 211.498 174.483 203.447 173.37 192.726C173.263 191.545 173.021 190.38 172.651 189.254" stroke="black" stroke-width="5.47" stroke-miterlimit="10"/>
<path d="M178.069 97.4839C178.838 100.689 180.592 103.571 183.086 105.726C185.58 107.88 188.687 109.197 191.969 109.492C192.241 108.17 192.833 106.934 193.691 105.893C197.355 101.574 198.916 109.676 210.636 103.859C226.876 95.7806 233.04 100.415 233.04 100.415C233.58 100.818 233.498 104.537 233.59 105.214C234.048 109.075 234.46 112.918 234.913 116.774C235.188 119.128 235.458 121.464 235.715 123.799C235.936 123.402 236.18 123.018 236.447 122.65C237.927 117.415 240.569 111.233 246.266 113.894C247.42 114.456 248.424 115.283 249.197 116.307C252.976 121.271 250.113 126.066 246.161 129.615C245.17 130.717 244.063 131.707 242.859 132.57C243.509 133.916 246.166 139.261 246.166 139.279C246.44 139.819 255.724 129.313 256.415 128.168C257.448 125.363 258.002 122.405 258.055 119.417C258.206 107.129 253.205 92.8263 243.253 85.778C240.784 84.0332 241.572 82.3524 241.421 79.9801C241.41 79.8519 241.361 79.73 241.28 79.6302C241.199 79.5304 241.089 79.4575 240.966 79.4214C240.842 79.3852 240.711 79.3875 240.588 79.4273C240.466 79.4676 240.359 79.5436 240.281 79.6462C237.162 83.2367 229.44 82.8795 229.44 82.8795C202.64 76.1656 193.631 88.0821 188.223 90.2071C186.016 91.0429 183.587 91.0832 181.353 90.3216C181.222 91.0608 180.891 91.75 180.396 92.3152C179.901 92.8803 179.262 93.2993 178.546 93.5274L178.683 94.7681C178.8 95.7175 178.583 96.6774 178.069 97.4839Z" fill="#004181"/>
<path d="M191.987 109.512C188.705 109.217 185.598 107.9 183.104 105.746C180.61 103.591 178.855 100.708 178.087 97.504C177.787 96.2748 177.596 95.0209 177.52 93.7578L177.73 93.7349C178.018 93.7134 178.302 93.6516 178.573 93.5517C179.289 93.3236 179.928 92.9046 180.423 92.3395C180.918 91.7748 181.249 91.0851 181.38 90.3459C181.464 89.936 181.481 89.5151 181.431 89.1002L180.744 83.0366C180.744 83.0366 185.589 86.6409 190.966 84.5342C196.342 82.4275 205.369 70.5111 232.183 77.2066C232.183 77.2066 238.238 77.5639 241.343 73.9733C241.421 73.8708 241.528 73.7947 241.651 73.7549C241.773 73.7146 241.904 73.7127 242.028 73.7489C242.151 73.7851 242.261 73.8579 242.342 73.9573C242.424 74.0571 242.473 74.1794 242.483 74.3077C242.643 76.6845 243.523 78.3653 245.996 80.1056C255.948 87.1584 260.949 101.456 260.793 113.744C260.747 118.841 259.053 123.874 256.438 128.193C255.746 129.338 246.463 139.844 246.188 139.303C246.188 139.303 243.532 133.94 242.882 132.594L242.726 132.296L243.024 132.099C244.129 131.349 245.185 130.527 246.184 129.64C250.131 126.091 252.998 121.296 249.22 116.331C248.446 115.307 247.443 114.48 246.289 113.918C240.573 111.257 237.949 117.44 236.47 122.674C236.183 123.674 236.006 124.704 235.943 125.743C235.875 125.102 235.806 124.483 235.737 123.842C235.481 121.506 235.21 119.171 234.936 116.817C234.478 112.961 234.047 109.118 233.612 105.258C233.543 104.598 233.612 100.861 233.063 100.458C233.063 100.458 226.894 95.8233 210.659 103.902C198.939 109.718 197.377 101.612 193.713 105.935C192.855 106.977 192.264 108.213 191.992 109.535C191.908 109.96 191.854 110.39 191.831 110.822C191.823 110.878 191.823 110.935 191.831 110.991C191.776 111.939 191.758 112.883 191.735 113.808C191.648 122.734 192.628 132.058 196.132 140.347C200.391 150.395 211.661 160.306 223.381 155.621C227.045 154.151 230.328 151.783 233.333 149.269" stroke="black" stroke-width="5.47" stroke-miterlimit="10"/>
<path d="M200.007 131.282C201.173 130.891 201.735 129.432 201.264 128.022C200.792 126.611 199.464 125.784 198.298 126.174C197.133 126.564 196.57 128.024 197.042 129.434C197.514 130.845 198.842 131.672 200.007 131.282Z" fill="black"/>
<path d="M217.446 130.723C218.611 130.333 219.174 128.874 218.702 127.463C218.23 126.053 216.902 125.226 215.736 125.616C214.571 126.006 214.008 127.466 214.48 128.876C214.952 130.286 216.28 131.113 217.446 130.723Z" fill="black"/>
<path d="M210.778 133.743C210.778 133.743 204.976 137.036 204.623 133.62C204.513 132.566 203.094 122.248 203.094 122.248C203.094 122.248 198.404 117.279 191.218 120.952" stroke="black" stroke-width="5.47" stroke-miterlimit="10"/>
<path d="M209.472 119.357C209.472 119.357 218.842 114.677 225.043 121.423" stroke="black" stroke-width="5.47" stroke-miterlimit="10"/>
<path d="M218.064 156.77L219.14 162.293C215.747 165.421 213.347 169.904 214.048 174.626C214.671 178.812 218.096 182.709 221.609 184.903C227.48 188.567 235.289 188.278 241.609 185.947C247.787 183.657 253.131 179.311 257.006 174.008C258.83 171.444 260.046 168.498 260.56 165.393V165.338" stroke="black" stroke-width="5.47" stroke-miterlimit="10"/>
<path d="M219.14 162.292L221.238 172.267" stroke="black" stroke-width="5.47" stroke-miterlimit="10"/>
<path d="M248.803 136.899L251.972 157.943C252.284 160.003 253.326 161.882 254.907 163.239C256.488 164.596 258.503 165.342 260.587 165.339C270.45 166.937 280.18 169.27 289.695 172.318C326.869 184.308 349.75 217.795 356.212 255.212C358.9 270.879 359.101 287.311 355.726 302.891C353.807 311.661 351.032 321.513 344.588 328.08C336.221 336.644 323.379 333.118 313.492 329.248C282.794 317.308 257.262 296.067 235.215 271.749C223.427 258.743 208.194 248.319 208.194 248.319" stroke="black" stroke-width="5.47" stroke-miterlimit="10"/>
<path d="M88.9841 307.714C85.5402 307.682 82.5404 304.902 81.7665 301.032C80.2368 293.42 79.8338 281.65 90.9946 279.081C104.94 275.875 115.666 291.062 120.923 300.661C122.691 303.867 120.69 307.989 117.397 307.989L88.9841 307.714Z" fill="#D7E8F0"/>
<path d="M93.5882 272.619C96.5485 270.649 96.5943 265.513 93.6894 261.148C90.7849 256.782 86.0302 254.841 83.0694 256.811C80.1086 258.781 80.0633 263.917 82.9677 268.282C85.8727 272.647 90.6274 274.589 93.5882 272.619Z" fill="#D7E8F0"/>
<path d="M322.766 340.956C322.551 340.988 322.309 341.02 322.098 341.071H322.015L289.44 340.901L240.56 340.65C240.372 340.65 240.189 340.65 240.006 340.65C239.643 340.641 239.281 340.613 238.921 340.567C242.232 340.182 245.302 338.642 247.59 336.217C249.878 333.792 251.237 330.637 251.428 327.309C251.437 327.137 251.437 326.964 251.428 326.791V326.526C251.415 323.269 250.28 320.116 248.214 317.598C246.149 315.08 243.28 313.35 240.088 312.699C239.754 312.617 239.388 312.567 239.035 312.516C239.589 312.466 240.139 312.429 240.675 312.429L281.97 312.649L289.573 312.681L299.827 312.731C303.337 313.052 306.603 314.671 308.984 317.271C311.364 319.871 312.69 323.266 312.7 326.791C312.701 327.457 312.65 328.121 312.549 328.779C312.061 332.135 310.384 335.205 307.824 337.43C305.264 339.654 301.991 340.886 298.599 340.901H323.412C321.983 340.901 322.382 340.901 322.766 340.956Z" fill="white"/>
<path d="M256.69 357.991C257.62 358.926 258.727 359.668 259.946 360.173C261.166 360.678 262.474 360.935 263.793 360.931H239.804C235.225 360.931 232.724 359.813 230.901 357.991C229.028 356.109 227.974 353.565 227.966 350.91C227.966 345.415 232.472 340.908 239.804 340.908H263.793C261.813 340.905 259.876 341.49 258.228 342.589C256.58 343.688 255.296 345.251 254.538 347.08C253.779 348.91 253.581 350.924 253.969 352.866C254.356 354.808 255.311 356.592 256.713 357.991H256.69Z" fill="#D7E8F0"/>
<path d="M335.915 327.043C335.909 329.159 335.416 331.244 334.477 333.139C333.805 334.571 332.884 335.872 331.756 336.981C329.896 338.824 327.561 340.113 325.01 340.704C323.959 340.947 322.883 341.07 321.804 341.071C322.024 341.02 322.262 340.988 322.473 340.956C322.088 340.92 321.69 340.906 323.123 340.906H298.306C301.7 340.893 304.976 339.661 307.538 337.435C310.1 335.21 311.778 332.138 312.265 328.779C312.366 328.121 312.416 327.457 312.416 326.791C312.405 323.265 311.08 319.87 308.698 317.27C306.316 314.669 303.05 313.051 299.538 312.731L312.934 312.8L321.882 312.851C325.622 312.882 329.197 314.393 331.826 317.052C334.456 319.711 335.926 323.303 335.915 327.043Z" fill="#004181"/>
<path d="M335.915 327.039C335.887 330.782 334.377 334.36 331.716 336.991C329.055 339.622 325.459 341.091 321.717 341.076L240.235 340.655C239.69 340.655 239.145 340.614 238.595 340.559C242.03 340.17 245.202 338.534 247.512 335.962C249.821 333.39 251.107 330.06 251.125 326.603C251.143 323.147 249.892 319.803 247.61 317.207C245.327 314.611 242.172 312.942 238.742 312.517C239.286 312.46 239.833 312.432 240.381 312.435L321.864 312.856C325.606 312.882 329.185 314.388 331.818 317.046C334.451 319.705 335.924 323.298 335.915 327.039Z" stroke="black" stroke-width="5.47" stroke-linecap="square" stroke-linejoin="round"/>
<path d="M312.407 326.787C312.4 330.528 310.911 334.114 308.265 336.759C305.62 339.405 302.034 340.894 298.292 340.902H240.318C239.77 340.899 239.222 340.868 238.678 340.81C242.11 340.403 245.274 338.75 247.57 336.166C249.865 333.582 251.133 330.246 251.133 326.789C251.133 323.333 249.865 319.997 247.57 317.412C245.274 314.828 242.11 313.176 238.678 312.768C239.223 312.718 239.773 312.681 240.318 312.681H298.292C302.032 312.69 305.615 314.179 308.261 316.821C310.905 319.465 312.396 323.048 312.407 326.787Z" stroke="black" stroke-width="5.47" stroke-linecap="square" stroke-linejoin="round"/>
<path d="M227.966 350.913C227.965 352.226 228.224 353.527 228.727 354.741C229.23 355.954 229.967 357.056 230.897 357.984C232.729 359.816 235.215 360.929 239.8 360.929H323.119C321.685 360.929 322.075 360.901 322.464 360.865C320.026 360.578 317.779 359.406 316.147 357.571C314.516 355.737 313.615 353.368 313.615 350.913C313.615 348.458 314.516 346.089 316.147 344.254C317.779 342.42 320.026 341.248 322.464 340.961C322.075 340.924 321.685 340.897 323.119 340.897H239.8C232.463 340.902 227.966 345.408 227.966 350.913Z" stroke="black" stroke-width="5.47" stroke-linecap="square" stroke-linejoin="round"/>
<path d="M253.75 350.913C253.756 353.568 254.813 356.112 256.69 357.989C258.567 359.866 261.111 360.923 263.766 360.929H321.301C321.686 360.929 322.075 360.901 322.464 360.865C320.027 360.578 317.779 359.406 316.148 357.571C314.516 355.737 313.615 353.368 313.615 350.913C313.615 348.458 314.516 346.089 316.148 344.254C317.779 342.42 320.027 341.248 322.464 340.961C322.075 340.924 321.686 340.897 321.301 340.897H263.766C261.112 340.904 258.568 341.962 256.691 343.839C254.815 345.715 253.757 348.259 253.75 350.913Z" stroke="black" stroke-width="5.47" stroke-linecap="square" stroke-linejoin="round"/>
<path d="M160.483 274.496H134.781C133.605 274.495 132.455 274.15 131.472 273.506C130.488 272.862 129.713 271.946 129.24 270.869C129.058 270.469 128.979 270.028 129.013 269.589C129.047 269.15 129.191 268.726 129.432 268.358C129.674 267.99 130.004 267.688 130.394 267.482C130.783 267.276 131.218 267.171 131.658 267.178H158.981C157.694 269.344 158.349 272.353 160.483 274.496Z" fill="#D7E8F0"/>
<path d="M177.103 271.848C177.102 272.549 176.824 273.22 176.328 273.715C175.833 274.211 175.162 274.49 174.461 274.491H160.484C158.349 272.352 157.694 269.343 158.981 267.163H171.324C172.498 267.164 173.648 267.505 174.632 268.145C175.616 268.786 176.394 269.698 176.87 270.772C177.018 271.112 177.097 271.478 177.103 271.848Z" fill="#004181"/>
<path d="M170.673 274.496C170.601 274.635 170.517 274.769 170.422 274.894C168.59 277.399 164.61 277.642 161.519 275.38C161.153 275.11 160.807 274.814 160.484 274.496C158.349 272.357 157.694 269.348 158.981 267.168C159.054 267.028 159.138 266.895 159.233 266.77C161.065 264.246 165.027 264.022 168.118 266.266C168.49 266.544 168.841 266.851 169.167 267.182C171.283 269.311 171.942 272.302 170.673 274.496Z" fill="white"/>
<path d="M183.565 287.984C183.56 288.685 183.278 289.356 182.78 289.85C182.283 290.344 181.61 290.622 180.909 290.622H153.938C155.239 288.433 154.589 285.447 152.45 283.294H177.785C178.962 283.295 180.112 283.637 181.097 284.28C182.082 284.924 182.858 285.84 183.331 286.917C183.482 287.253 183.562 287.616 183.565 287.984Z" fill="#004181"/>
<path d="M153.938 290.621H141.248C140.073 290.622 138.923 290.281 137.939 289.64C136.954 289 136.177 288.086 135.702 287.012C135.552 286.676 135.473 286.313 135.468 285.945C135.468 285.599 135.536 285.255 135.668 284.935C135.8 284.614 135.994 284.324 136.239 284.078C136.484 283.833 136.776 283.639 137.096 283.507C137.416 283.374 137.759 283.306 138.106 283.307H152.45C154.589 285.446 155.253 288.432 153.938 290.621Z" fill="#D7E8F0"/>
<path d="M153.939 290.621C153.879 290.765 153.8 290.9 153.705 291.024C151.873 293.543 147.907 293.772 144.82 291.523C144.447 291.245 144.095 290.938 143.767 290.607C141.647 288.469 140.996 285.483 142.265 283.28C142.338 283.139 142.422 283.004 142.517 282.877C144.349 280.372 148.328 280.129 151.415 282.396C151.783 282.663 152.129 282.958 152.45 283.28C154.589 285.446 155.253 288.432 153.939 290.621Z" fill="white"/>
<path d="M162.924 306.638H146.776C145.601 306.636 144.453 306.294 143.469 305.654C142.484 305.014 141.706 304.102 141.23 303.029C141.048 302.627 140.97 302.185 141.004 301.745C141.039 301.305 141.183 300.881 141.424 300.512C141.666 300.143 141.997 299.84 142.386 299.632C142.776 299.424 143.211 299.319 143.652 299.324H161.422C160.149 301.517 160.803 304.499 162.924 306.638Z" fill="#004181"/>
<path d="M189.093 304.017C189.089 304.714 188.809 305.381 188.315 305.872C187.82 306.363 187.151 306.638 186.455 306.637H162.924C160.804 304.498 160.149 301.512 161.422 299.309H183.313C184.489 299.309 185.64 299.652 186.625 300.295C187.61 300.939 188.386 301.855 188.859 302.932C189.01 303.274 189.09 303.643 189.093 304.017Z" fill="#D7E8F0"/>
<path d="M173.114 306.637C173.041 306.778 172.957 306.913 172.863 307.04C171.031 309.559 167.069 309.788 163.978 307.54C163.606 307.26 163.256 306.954 162.929 306.624C160.809 304.485 160.154 301.499 161.427 299.296C161.497 299.155 161.579 299.019 161.674 298.893C163.506 296.388 167.486 296.173 170.577 298.412C170.945 298.679 171.291 298.975 171.612 299.296C173.746 301.462 174.397 304.467 173.114 306.637Z" fill="white"/>
<path d="M51.1146 160.631L51.5176 160.745L51.3664 161.331C51.2707 161.102 51.1865 160.868 51.1146 160.631Z" fill="#353642"/>
<path d="M122.785 197.271C128.814 195.501 131.981 188.209 129.86 180.984C127.74 173.76 121.133 169.337 115.105 171.107C109.076 172.877 105.909 180.168 108.03 187.393C110.151 194.618 116.757 199.04 122.785 197.271Z" fill="#D7E8F0"/>
</svg>
