<svg width="20" height="20" viewBox="0 0 20 20" fill="none" xmlns="http://www.w3.org/2000/svg">
<path d="M18.2701 8.63119L5.14038 1.139C4.86355 0.983934 4.54607 0.91682 4.23017 0.946591C3.91427 0.976361 3.61491 1.1016 3.37193 1.30566C3.12894 1.50972 2.95384 1.78292 2.86992 2.08892C2.78599 2.39492 2.79722 2.71923 2.9021 3.01869L5.25992 9.99994L2.9021 16.9812C2.81921 17.2167 2.79396 17.4687 2.82848 17.7159C2.863 17.9632 2.95627 18.1986 3.10049 18.4025C3.2447 18.6063 3.43567 18.7726 3.65737 18.8874C3.87908 19.0022 4.12508 19.0622 4.37476 19.0624C4.64326 19.0619 4.90713 18.9925 5.14117 18.8609L5.1482 18.8562L18.2732 11.3507C18.5138 11.2145 18.714 11.0169 18.8533 10.778C18.9926 10.5391 19.066 10.2675 19.066 9.99096C19.066 9.71443 18.9926 9.44285 18.8533 9.20396C18.714 8.96506 18.5138 8.76742 18.2732 8.63119H18.2701ZM4.93648 16.8171L6.92242 10.9374H11.2498C11.4984 10.9374 11.7369 10.8387 11.9127 10.6629C12.0885 10.487 12.1873 10.2486 12.1873 9.99994C12.1873 9.7513 12.0885 9.51285 11.9127 9.33703C11.7369 9.16121 11.4984 9.06244 11.2498 9.06244H6.92242L4.9357 3.18119L16.8701 9.99135L4.93648 16.8171Z" fill="white"/>
</svg>
